<?xml version="1.0" encoding="UTF-8" standalone="no"?>
<svg
   fill="#000000"
   viewBox="0 0 50 50"
   width="100px"
   height="100px"
   version="1.1"
   id="svg4"
   sodipodi:docname="snap.svg"
   inkscape:version="1.2.1 (9c6d41e410, 2022-07-14)"
   xmlns:inkscape="http://www.inkscape.org/namespaces/inkscape"
   xmlns:sodipodi="http://sodipodi.sourceforge.net/DTD/sodipodi-0.dtd"
   xmlns="http://www.w3.org/2000/svg"
   xmlns:svg="http://www.w3.org/2000/svg">
  <defs
     id="defs8" />
  <sodipodi:namedview
     id="namedview6"
     pagecolor="#ffffff"
     bordercolor="#666666"
     borderopacity="1.0"
     inkscape:showpageshadow="2"
     inkscape:pageopacity="0.0"
     inkscape:pagecheckerboard="0"
     inkscape:deskcolor="#d1d1d1"
     showgrid="false"
     inkscape:zoom="2.36"
     inkscape:cx="50.211864"
     inkscape:cy="50"
     inkscape:window-width="2948"
     inkscape:window-height="1848"
     inkscape:window-x="26"
     inkscape:window-y="51"
     inkscape:window-maximized="0"
     inkscape:current-layer="svg4" />
  <path
     d="m 46.769532,35.078125 c -5.804688,-0.957032 -8.457032,-6.96875 -8.542969,-7.164062 -0.01172,-0.03516 -0.03906,-0.09766 -0.05469,-0.132813 -0.175781,-0.351562 -0.351562,-0.847656 -0.203125,-1.199219 0.253907,-0.601562 1.460938,-0.984375 2.183594,-1.214843 0.253906,-0.08203 0.496094,-0.15625 0.683594,-0.230469 1.753906,-0.695313 2.628906,-1.601563 2.609375,-2.703125 C 43.429688,21.546875 42.75,20.734375 41.75,20.382813 c -0.347656,-0.148438 -0.746093,-0.222657 -1.148437,-0.222657 -0.273438,0 -0.6875,0.03906 -1.085938,0.222657 -0.667968,0.3125 -1.253906,0.480468 -1.671875,0.5 -0.08984,-0.0039 -0.167968,-0.01172 -0.234375,-0.02344 l 0.04297,-0.6875 C 37.847657,17.0625 38.09375,13.1875 37.042969,10.832031 33.941407,3.8906247 27.371094,3.3515627 25.429688,3.3515627 l -0.882813,0.00781 c -1.9375,0 -8.496093,0.539063 -11.589843,7.4765633 -1.050782,2.355468 -0.808594,6.226562 -0.609375,9.339843 l 0.0078,0.117188 c 0.01172,0.191406 0.02344,0.382812 0.03516,0.566406 -0.433593,0.07813 -1.28125,-0.06641 -2.160156,-0.476562 C 9.0351569,19.824219 6.8828129,20.5625 6.5859379,22.125 c -0.132813,0.691406 0.027344,2.003906 2.574219,3.007813 0.191406,0.07813 0.429687,0.152343 0.6875,0.234375 0.7187501,0.230468 1.9257811,0.609375 2.1796871,1.214843 0.148438,0.351562 -0.02734,0.847657 -0.234375,1.273437 -0.109375,0.253907 -2.7460941,6.265625 -8.5625001,7.222657 -0.742187,0.121093 -1.269531,0.777343 -1.230469,1.535156 0.011719,0.199219 0.0625,0.398437 0.144532,0.59375 0.527343,1.238281 2.445312,2.089844 6.023437,2.671875 0.0625,0.210937 0.132813,0.523437 0.171875,0.695312 0.074219,0.355469 0.15625,0.714844 0.265625,1.089844 0.105469,0.355469 0.46875,1.179688 1.6015631,1.179688 0.34375,0 0.71875,-0.07422 1.121093,-0.152344 0.59375,-0.117188 1.335938,-0.261719 2.289063,-0.261719 0.53125,0 1.078125,0.04687 1.628906,0.136719 1.015625,0.167969 1.933594,0.820312 3,1.570312 1.664063,1.179688 3.550781,2.511719 6.476563,2.511719 0.07813,0 0.15625,-0.0039 0.230468,-0.0078 0.105469,0.0039 0.214844,0.0078 0.324219,0.0078 2.925781,0 4.8125,-1.335937 6.480469,-2.511719 1.015625,-0.722656 1.976562,-1.398437 2.996094,-1.570312 0.550781,-0.08984 1.097656,-0.136719 1.628906,-0.136719 0.917969,0 1.644531,0.117188 2.292969,0.246094 0.460937,0.08984 0.828125,0.132812 1.167968,0.132812 0.757813,0 1.339844,-0.433593 1.550782,-1.160156 0.109375,-0.367187 0.1875,-0.722656 0.265625,-1.082031 0.03125,-0.132813 0.105468,-0.46875 0.171875,-0.691406 3.578125,-0.582032 5.496093,-1.433594 6.019531,-2.660157 C 47.9375,37.019531 47.984375,36.816406 48,36.605468 48.03906,35.859375 47.511719,35.203125 46.769532,35.078125 Z"
     id="path2"
     style="fill:#ffffff" />
</svg>
