<?xml version="1.0" encoding="UTF-8" standalone="no"?>
<svg
   width="852.33221"
   height="624.97485"
   viewBox="0 0 852.33221 624.97485"
   fill="none"
   version="1.1"
   id="svg17"
   sodipodi:docname="BB.svg"
   inkscape:version="1.2.1 (9c6d41e410, 2022-07-14)"
   xmlns:inkscape="http://www.inkscape.org/namespaces/inkscape"
   xmlns:sodipodi="http://sodipodi.sourceforge.net/DTD/sodipodi-0.dtd"
   xmlns="http://www.w3.org/2000/svg"
   xmlns:svg="http://www.w3.org/2000/svg">
  <defs
     id="defs21" />
  <sodipodi:namedview
     id="namedview19"
     pagecolor="#ffffff"
     bordercolor="#666666"
     borderopacity="1.0"
     inkscape:showpageshadow="2"
     inkscape:pageopacity="0.0"
     inkscape:pagecheckerboard="0"
     inkscape:deskcolor="#d1d1d1"
     showgrid="false"
     inkscape:zoom="0.77927852"
     inkscape:cx="528.69415"
     inkscape:cy="399.08709"
     inkscape:window-width="1474"
     inkscape:window-height="924"
     inkscape:window-x="13"
     inkscape:window-y="25"
     inkscape:window-maximized="0"
     inkscape:current-layer="svg17" />
  <g
     style="mix-blend-mode:luminosity"
     id="g4"
     transform="translate(-2.8252969,-94.499063)">
    <path
       d="M 660.957,159.791 C 885.573,237.29 902.562,297.475 777.315,497.719 693.12,632.33 411.316,692.979 235.632,718.275 160.184,729.139 105.313,664.599 107.362,588.4 108.304,553.408 101.342,530.768 79.4939,502.931 31.7921,442.153 34.0886,356.336 101.266,318.169 255.101,230.767 511.111,108.089 660.957,159.791 Z"
       fill="#6db0cd"
       fill-opacity="0.5"
       id="path2" />
  </g>
  <path
     d="m 614.1317,12.291937 c 224.616,77.499 241.605,137.684003 116.358,337.928003 -84.195,134.611 -365.999,195.26 -541.683,220.556 -75.448,10.864 -130.318497,-53.676 -128.269497,-129.875 0.941,-34.992 -6.0208,-57.632 -27.8686,-85.469 -47.7018,-60.778 -45.4053,-146.595 21.7717,-184.762 C 208.2757,83.267937 464.2857,-39.410163 614.1317,12.291937 Z"
     fill="#e46e8b"
     id="path6" />
  <mask
     id="mask0_4_257"
     maskUnits="userSpaceOnUse"
     x="2"
     y="94"
     width="810"
     height="573">
    <path
       d="M 616.957,106.791 C 841.573,184.29 858.562,244.475 733.315,444.719 649.12,579.33 367.316,639.979 191.632,665.275 116.184,676.139 61.3134,611.599 63.3625,535.4 64.3035,500.408 57.3417,477.768 35.4939,449.931 -12.2079,389.153 -9.91142,303.336 57.2656,265.169 211.101,177.767 467.111,55.0889 616.957,106.791 Z"
       fill="#e46e8b"
       id="path8" />
  </mask>
  <g
     mask="url(#mask0_4_257)"
     id="g13"
     transform="translate(-2.8252969,-94.499063)">
    <rect
       x="-6.7256498"
       y="423.78"
       width="830.30701"
       height="166.638"
       transform="rotate(-20.5,-6.72565,423.78)"
       fill="#ca4242"
       id="rect11" />
  </g>
</svg>
