<?xml version="1.0" encoding="UTF-8" standalone="no"?>
<svg
   width="1728"
   height="5805"
   viewBox="0 0 1728 5805"
   fill="none"
   version="1.1"
   id="svg999"
   sodipodi:docname="blobs(1).svg"
   inkscape:version="1.2.1 (9c6d41e410, 2022-07-14)"
   xmlns:inkscape="http://www.inkscape.org/namespaces/inkscape"
   xmlns:sodipodi="http://sodipodi.sourceforge.net/DTD/sodipodi-0.dtd"
   xmlns="http://www.w3.org/2000/svg"
   xmlns:svg="http://www.w3.org/2000/svg">
  <defs
     id="defs1003" />
  <sodipodi:namedview
     id="namedview1001"
     pagecolor="#ffffff"
     bordercolor="#666666"
     borderopacity="1.0"
     inkscape:showpageshadow="2"
     inkscape:pageopacity="0.0"
     inkscape:pagecheckerboard="0"
     inkscape:deskcolor="#d1d1d1"
     showgrid="false"
     inkscape:zoom="0.18599103"
     inkscape:cx="1196.2942"
     inkscape:cy="5478.7587"
     inkscape:window-width="1474"
     inkscape:window-height="924"
     inkscape:window-x="13"
     inkscape:window-y="25"
     inkscape:window-maximized="0"
     inkscape:current-layer="svg999" />
  <path
     fill-rule="evenodd"
     clip-rule="evenodd"
     d="m 751.308,731.975 c 45.751,14.754 121.639,-28.483 141.586,15.254 25.33,55.54 -44.064,112.05 -56.246,171.865 -5.183,25.452 1.679,51.067 5.616,76.741 5.093,33.215 30.476,65.025 21.069,97.275 -9.159,31.41 -49.992,41.37 -69.222,67.83 -29.916,41.18 -31.678,104.15 -75.064,130.76 -41.105,25.21 -98.05,20.79 -142.817,2.87 -44.433,-17.78 -62.325,-71.08 -100.316,-100.19 -42.657,-32.68 -126.894,-28.64 -136.773,-81.46 -10.912,-58.35 71.219,-93.86 93.711,-148.795 14.573,-35.593 6.229,-75.369 13.53,-113.13 9.791,-50.643 1.61,-110.735 37.006,-148.254 34.331,-36.39 92.479,-47.141 142.212,-41.714 48.439,5.285 79.333,55.992 125.708,70.948 z"
     stroke="#6db0cd"
     stroke-width="18"
     id="path903" />
  <path
     fill-rule="evenodd"
     clip-rule="evenodd"
     d="m 1300.14,351.331 c 47.73,-5.713 98.61,-76.705 135.01,-45.305 46.22,39.873 6.79,120.21 20.72,179.644 5.92,25.289 22.86,45.692 37.17,67.372 18.5,28.045 54.85,46.339 59.79,79.574 4.8,32.361 -28.14,58.469 -34.55,90.55 -9.97,49.909 14.74,107.857 -13.55,150.16 -26.81,40.08 -80.4,59.86 -128.56,62.288 -47.8,2.409 -86.32,-38.536 -133,-49.106 -52.41,-11.867 -127.25,27.007 -158.3,-16.855 -34.3,-48.449 25.48,-115.034 22.96,-174.339 -1.63,-38.426 -25.83,-71.076 -34.98,-108.433 -12.27,-50.101 -44.81,-101.276 -28.33,-150.154 15.98,-47.406 64.32,-81.471 111.77,-97.323 46.21,-15.439 95.47,17.718 143.85,11.927 z"
     stroke="#6db0cd"
     stroke-width="11"
     id="path905" />
  <path
     fill-rule="evenodd"
     clip-rule="evenodd"
     d="M 570.497,281.004 C 557.033,377.803 425.635,389.483 349.357,450.581 275.286,509.912 234.104,646.731 141.884,624.322 49.4864,601.869 70.7862,463.198 36.4221,374.538 9.05601,303.933 -62.3752,240.659 -34.0388,170.438 -5.01241,98.5066 86.6605,88.3795 160.928,65.9965 244.037,40.9486 329.947,-2.77068 406.803,37.5755 497.891,85.3934 584.67,179.108 570.497,281.004 Z"
     stroke="#6db0cd"
     stroke-width="12"
     id="path907" />
  <path
     fill-rule="evenodd"
     clip-rule="evenodd"
     d="m 839.69,224.052 c 97.72,-1.388 129.215,126.713 201.19,192.83 69.88,64.205 211.37,84.138 203.22,178.691 -8.16,94.735 -148.46,94.736 -230.88,142.162 C 947.593,775.504 895.898,855.713 822.188,838.367 746.684,820.598 722.756,731.525 689.357,661.517 651.981,583.174 595.726,504.898 623.936,422.808 657.37,325.515 736.823,225.514 839.69,224.052 Z"
     stroke="#6db0cd"
     stroke-width="12"
     id="path909" />
  <path
     fill-rule="evenodd"
     clip-rule="evenodd"
     d="m 719.94,-335.537 c 73.657,23.346 178.9,-47.435 225.718,16.795 47.657,65.38 -30.029,159.879 -35.799,243.7554 -4.506,65.51295 26.167,129.0189 5.857,191.5426 C 892.241,188.822 858.477,277.245 789.124,296.689 718.61,316.458 667.243,225.428 597.822,205.679 534.353,187.623 464.151,218.14 405.394,187.527 325.545,145.924 207.974,100.057 211.331,4.31252 214.826,-95.3581 367.739,-107.696 418.731,-192.873 467.439,-274.236 408.381,-423.719 491,-462.85 c 82.523,-39.086 144.011,100.394 228.94,127.313 z"
     stroke="#6db0cd"
     stroke-width="19"
     id="path911" />
  <path
     fill-rule="evenodd"
     clip-rule="evenodd"
     d="m 261.805,495.767 c 62.027,46.075 184.592,13.455 207.923,89.435 23.749,77.343 -80.492,141.365 -113.281,218.783 C 330.837,864.453 339.14,934.488 299.564,986.98 253.82,1047.65 193.083,1120.24 121.18,1116.03 48.0735,1111.74 29.1752,1008.94 -30.02,967.642 -84.1406,929.888 -160.455,935.861 -206.028,887.771 -267.96,822.419 -364.166,740.741 -329.791,651.317 -294.006,558.226 -145.42,596.394 -69.4536,532.484 3.11098,471.435 -4.00938,310.867 86.8515,300.796 177.607,290.737 190.284,442.641 261.805,495.767 Z"
     stroke="#6db0cd"
     stroke-width="19"
     id="path913" />
  <path
     fill-rule="evenodd"
     clip-rule="evenodd"
     d="m 1798.49,267.33 c 86.45,16.441 111.53,124.395 156.27,200.173 29.13,49.351 50.43,99.078 54.16,156.266 4.09,62.592 12.6,134.33 -32.33,178.103 -44.7,43.559 -116.39,17.539 -178.1,26.928 -83.87,12.761 -168.59,79.479 -242.02,36.991 -80.03,-46.304 -114.77,-149.591 -112.35,-242.022 2.37,-90.528 60.86,-165.444 124.7,-229.666 64.1,-64.465 140.37,-143.757 229.67,-126.773 z"
     stroke="#6db0cd"
     stroke-width="11"
     id="path915" />
  <path
     fill-rule="evenodd"
     clip-rule="evenodd"
     d="m 1470.49,-347.67 c 86.45,16.441 111.53,124.395 156.27,200.173 29.13,49.3513 50.43,99.0778 54.16,156.26638 4.09,62.59152 12.6,134.32962 -32.33,178.10262 -44.7,43.559 -116.39,17.539 -178.1,26.928 -83.87,12.761 -168.59,79.479 -242.02,36.991 C 1148.44,204.487 1113.7,101.2 1116.12,8.76938 c 2.37,-90.52878 60.86,-165.44438 124.7,-229.66638 64.1,-64.465 140.37,-143.757 229.67,-126.773 z"
     stroke="#6db0cd"
     stroke-width="11"
     id="path917" />
  <path
     fill-rule="evenodd"
     clip-rule="evenodd"
     d="m 1268.05,827.656 c 75.08,-15.005 155.67,6.842 213.45,57.076 61.39,53.372 90.78,132.398 97.72,213.448 7.69,89.75 4.14,187.97 -57.71,253.47 -62.95,66.67 -165.72,102.71 -253.46,76.06 -78.48,-23.84 -93.42,-123.69 -135.35,-194.18 -26.27,-44.17 -59.35,-83.97 -60.65,-135.35 -1.32,-52.69 22.73,-99.654 53.66,-142.341 38.94,-53.753 77.25,-115.174 142.34,-128.183 z"
     stroke="#6db0cd"
     stroke-width="11"
     id="path919" />
  <path
     fill-rule="evenodd"
     clip-rule="evenodd"
     d="m 700.308,707.975 c 45.751,14.754 121.639,-28.483 141.586,15.254 25.33,55.54 -44.064,112.05 -56.246,171.865 -5.183,25.452 1.679,51.067 5.616,76.741 5.093,33.215 30.476,65.025 21.069,97.275 -9.159,31.41 -49.992,41.37 -69.222,67.83 -29.916,41.18 -31.678,104.15 -75.064,130.76 -41.105,25.21 -98.05,20.79 -142.817,2.87 -44.433,-17.78 -62.325,-71.08 -100.316,-100.19 -42.657,-32.68 -126.894,-28.64 -136.773,-81.46 -10.912,-58.35 71.219,-93.863 93.711,-148.795 14.573,-35.593 6.229,-75.369 13.53,-113.13 9.791,-50.643 1.61,-110.735 37.006,-148.254 34.331,-36.39 92.479,-47.141 142.212,-41.714 48.439,5.285 79.333,55.992 125.708,70.948 z"
     stroke="#ffffff"
     stroke-width="18"
     id="path921" />
  <path
     fill-rule="evenodd"
     clip-rule="evenodd"
     d="m 1249.14,327.331 c 47.73,-5.713 98.61,-76.705 135.01,-45.305 46.22,39.873 6.79,120.21 20.72,179.644 5.92,25.289 22.86,45.692 37.17,67.372 18.5,28.045 54.85,46.339 59.79,79.574 4.8,32.361 -28.14,58.469 -34.55,90.55 -9.97,49.909 14.74,107.857 -13.55,150.16 -26.81,40.08 -80.4,59.86 -128.56,62.288 -47.8,2.409 -86.32,-38.536 -133,-49.106 -52.41,-11.867 -127.25,27.007 -158.3,-16.855 -34.295,-48.449 25.48,-115.034 22.96,-174.339 -1.63,-38.426 -25.83,-71.076 -34.98,-108.433 -12.27,-50.101 -44.81,-101.276 -28.33,-150.154 15.98,-47.406 64.32,-81.471 111.77,-97.323 46.21,-15.439 95.47,17.718 143.85,11.927 z"
     stroke="#ffffff"
     stroke-width="11"
     id="path923" />
  <path
     fill-rule="evenodd"
     clip-rule="evenodd"
     d="M 519.497,257.004 C 506.033,353.803 374.635,365.483 298.357,426.581 224.286,485.912 183.104,622.731 90.8841,600.322 -1.51363,577.869 19.7862,439.198 -14.5779,350.538 -41.944,279.933 -113.375,216.659 -85.0388,146.438 -56.0124,74.5066 35.6605,64.3795 109.928,41.9965 193.037,16.9486 278.947,-26.7707 355.803,13.5755 446.891,61.3934 533.67,155.108 519.497,257.004 Z"
     stroke="#ffffff"
     stroke-width="12"
     id="path925" />
  <path
     fill-rule="evenodd"
     clip-rule="evenodd"
     d="m 788.69,200.052 c 97.72,-1.388 129.215,126.713 201.185,192.83 69.885,64.205 211.375,84.138 203.225,178.691 -8.16,94.735 -148.46,94.736 -230.875,142.162 C 896.593,751.504 844.898,831.713 771.188,814.367 695.684,796.598 671.756,707.525 638.357,637.517 600.981,559.174 544.726,480.898 572.936,398.808 606.37,301.515 685.823,201.514 788.69,200.052 Z"
     stroke="#ffffff"
     stroke-width="12"
     id="path927" />
  <path
     fill-rule="evenodd"
     clip-rule="evenodd"
     d="m 668.94,-359.537 c 73.657,23.346 178.9,-47.435 225.718,16.795 47.657,65.38 -30.029,159.879 -35.799,243.7554 -4.506,65.513 26.167,129.0189 5.857,191.5424 C 841.241,164.822 807.477,253.245 738.124,272.689 667.61,292.458 616.243,201.428 546.822,181.679 483.353,163.623 413.151,194.14 354.394,163.527 274.545,121.924 156.974,76.0569 160.331,-19.6875 c 3.495,-99.6705 156.408,-112.0085 207.4,-197.1855 48.708,-81.363 -10.35,-230.846 72.269,-269.977 82.523,-39.086 144.011,100.394 228.94,127.313 z"
     stroke="#ffffff"
     stroke-width="19"
     id="path929" />
  <path
     fill-rule="evenodd"
     clip-rule="evenodd"
     d="m 210.805,471.767 c 62.027,46.075 184.592,13.455 207.923,89.435 23.749,77.343 -80.492,141.365 -113.281,218.783 C 279.837,840.453 288.14,910.488 248.564,962.98 202.82,1023.65 142.083,1096.24 70.1802,1092.03 -2.9265,1087.74 -21.8248,984.935 -81.02,943.642 -135.141,905.888 -211.455,911.861 -257.028,863.771 -318.96,798.419 -415.166,716.741 -380.791,627.317 -345.006,534.226 -196.42,572.394 -120.454,508.484 -47.889,447.435 -55.0094,286.867 35.8515,276.796 126.607,266.737 139.284,418.641 210.805,471.767 Z"
     stroke="#ffffff"
     stroke-width="19"
     id="path931" />
  <path
     fill-rule="evenodd"
     clip-rule="evenodd"
     d="m 1747.49,243.33 c 86.45,16.441 111.53,124.395 156.27,200.173 29.13,49.351 50.43,99.078 54.16,156.266 4.09,62.592 12.6,134.33 -32.33,178.103 -44.7,43.559 -116.39,17.539 -178.1,26.928 -83.87,12.761 -168.59,79.479 -242.02,36.991 -80.03,-46.304 -114.77,-149.591 -112.35,-242.022 2.37,-90.528 60.86,-165.444 124.7,-229.666 64.1,-64.465 140.37,-143.757 229.67,-126.773 z"
     stroke="#ffffff"
     stroke-width="11"
     id="path933" />
  <path
     fill-rule="evenodd"
     clip-rule="evenodd"
     d="m 1419.49,-371.67 c 86.45,16.441 111.53,124.395 156.27,200.173 29.13,49.351 50.43,99.0778 54.16,156.2664 4.09,62.5915 12.6,134.3296 -32.33,178.1026 -44.7,43.559 -116.39,17.539 -178.1,26.928 -83.87,12.761 -168.59,79.479 -242.02,36.991 -80.03,-46.304 -114.77,-149.5915 -112.35,-242.0216 2.37,-90.5284 60.86,-165.4444 124.7,-229.6664 64.1,-64.465 140.37,-143.757 229.67,-126.773 z"
     stroke="#ffffff"
     stroke-width="11"
     id="path935" />
  <path
     fill-rule="evenodd"
     clip-rule="evenodd"
     d="m 1217.05,803.656 c 75.08,-15.005 155.67,6.842 213.45,57.076 61.39,53.372 90.78,132.4 97.72,213.448 7.69,89.75 4.14,187.97 -57.71,253.47 -62.95,66.67 -165.72,102.71 -253.46,76.06 -78.48,-23.84 -93.42,-123.69 -135.35,-194.18 -26.27,-44.17 -59.35,-83.97 -60.65,-135.35 -1.32,-52.69 22.73,-99.654 53.66,-142.341 38.94,-53.753 77.25,-115.174 142.34,-128.183 z"
     stroke="#ffffff"
     stroke-width="11"
     id="path937" />
  <path
     fill-rule="evenodd"
     clip-rule="evenodd"
     d="m 608.841,1016.93 c 28.653,38.6 115.536,47.52 106.347,94.71 -11.67,59.92 -100.984,65.57 -145.663,107.16 -19.011,17.7 -28.316,42.53 -40.035,65.71 -15.159,29.99 -12.994,70.63 -39.396,91.41 -25.709,20.23 -64.723,4.6 -95.754,14.96 -48.276,16.11 -86.313,66.33 -137.083,62.77 -48.101,-3.38 -91.871,-40.07 -117.884,-80.67 -25.819,-40.3 -9.4,-94.07 -23.396,-139.84 -15.716,-51.39 -86.6131,-97.06 -63.9496,-145.79 25.0339,-53.82 112.5086,-34.98 162.7406,-66.61 32.546,-20.49 48.875,-57.706 76.764,-84.191 37.403,-35.519 65.673,-89.172 116.284,-99.13 49.087,-9.658 102.653,15.391 139.968,48.713 36.345,32.456 32.013,91.675 61.057,130.798 z"
     stroke="#ffffff"
     stroke-width="10"
     id="path939" />
  <path
     fill-rule="evenodd"
     clip-rule="evenodd"
     d="m 1276.69,1026.19 c 42.16,23.09 124.82,-5.1 136.19,41.6 14.44,59.31 -64.34,101.77 -87.55,158.23 -9.88,24.02 -7.96,50.47 -8.92,76.42 -1.24,33.58 17.71,69.6 2.41,99.51 -14.91,29.12 -56.88,31.23 -80.74,53.61 -37.13,34.81 -50.7,96.33 -98.31,114.31 -45.12,17.03 -100.22,1.98 -140.815,-24.04 -40.296,-25.82 -47.848,-81.53 -79.689,-117.26 -35.751,-40.12 -119.246,-51.99 -119.017,-105.73 0.253,-59.36 87.597,-78.79 120.016,-128.52 21.005,-32.22 20.288,-72.85 34.559,-108.57 19.138,-47.89 22.402,-108.452 64.226,-138.647 40.56,-29.287 99.69,-28.913 147.51,-14.232 46.58,14.298 67.39,69.909 110.13,93.319 z"
     stroke="#ffffff"
     stroke-width="11"
     id="path941" />
  <path
     fill-rule="evenodd"
     clip-rule="evenodd"
     d="m 723.827,544.867 c -67.219,70.943 -180.931,4.075 -278.513,9.457 -94.76,5.227 -207.795,92.625 -269.813,20.789 -62.137,-71.975 35.796,-172.437 59.365,-264.556 18.769,-73.36 -2.58,-166.367 61.293,-207.039 65.429,-41.6616 145.913,3.381 219.356,28.334 82.188,27.924 177.507,42.281 216.597,119.783 46.329,91.855 62.473,218.553 -8.285,293.232 z"
     stroke="#ffffff"
     stroke-width="12"
     id="path943" />
  <path
     fill-rule="evenodd"
     clip-rule="evenodd"
     d="m 975.981,654.987 c 80.329,55.668 31.499,178.215 51.629,273.849 19.56,92.864 123.1,191.324 61.52,263.524 -61.71,72.35 -175.877,-9.2 -270.507,-18.51 -75.359,-7.41 -164.046,27.81 -213.943,-29.15 -51.113,-58.34 -18.812,-144.73 -5.299,-221.111 15.122,-85.474 14.841,-181.868 85.51,-232.271 83.756,-59.738 206.534,-94.931 291.09,-36.331 z"
     stroke="#ffffff"
     stroke-width="12"
     id="path945" />
  <path
     fill-rule="evenodd"
     clip-rule="evenodd"
     d="m 1203.79,130.026 c 46.37,61.81 173.15,65.384 173.91,144.862 0.78,80.902 -117.36,112.645 -170.81,177.545 -41.74,50.691 -53.7,120.196 -106.56,159.269 -61.11,45.161 -139.979,97.489 -207.715,73.001 C 823.745,659.805 834.855,555.874 789.844,499.454 748.691,447.871 673.828,431.899 643.809,372.837 603.014,292.573 534.002,186.913 592.383,110.953 653.159,31.8788 784.761,110.718 875.763,71.0438 962.69,33.1465 1001.52,-122.819 1091.49,-106.641 c 89.87,16.16 58.84,165.3988 112.3,236.667 z"
     stroke="#ffffff"
     stroke-width="19"
     id="path947" />
  <path
     fill-rule="evenodd"
     clip-rule="evenodd"
     d="m 347.805,540.205 c 23.694,73.546 142.389,118.24 117.212,193.629 -25.628,76.739 -147.665,68.249 -219.344,112.189 -55.986,34.319 -89.936,96.135 -152.6512,115.846 -72.4874,22.783 -164.1046,46.551 -220.1628,1.327 -56.996,-45.983 -12.623,-140.619 -36.792,-208.628 -22.096,-62.178 -87.667,-101.674 -96.8,-167.295 -12.412,-89.177 -43.224,-211.559 36.725,-264.347 83.227,-54.952 181.9524,62.47 280.9154,54.618 94.5316,-7.5 182.0656,-142.299 261.8556,-97.683 79.698,44.565 1.722,175.543 29.042,260.344 z"
     stroke="#ffffff"
     stroke-width="19"
     id="path949" />
  <path
     fill-rule="evenodd"
     clip-rule="evenodd"
     d="m 1731.04,1247.49 c 60.79,63.63 18.45,166.05 10.81,253.72 -4.97,57.09 -16.55,109.93 -46.75,158.64 -33.06,53.31 -67.83,116.63 -129.83,126.14 -61.69,9.46 -104.91,-53.38 -160.58,-81.61 -75.67,-38.37 -183.38,-33.31 -218.44,-110.57 -38.21,-84.2 -6.45,-188.44 49.25,-262.24 54.55,-72.29 145.68,-99.26 234.97,-114.41 89.62,-15.2 197.77,-35.4 260.57,30.33 z"
     stroke="#ffffff"
     stroke-width="11"
     id="path951" />
  <path
     fill-rule="evenodd"
     clip-rule="evenodd"
     d="m 1821.59,556.398 c 60.79,63.626 18.45,166.05 10.81,253.715 -4.97,57.094 -16.55,109.935 -46.75,158.642 -33.05,53.305 -67.82,116.635 -129.82,126.135 -61.7,9.46 -104.91,-53.38 -160.58,-81.6 -75.67,-38.37 -183.39,-33.317 -218.45,-110.573 -38.21,-84.197 -6.44,-188.438 49.25,-262.244 54.55,-72.289 145.68,-99.256 234.97,-114.405 89.62,-15.205 197.77,-35.397 260.57,30.33 z"
     stroke="#ffffff"
     stroke-width="11"
     id="path953" />
  <path
     fill-rule="evenodd"
     clip-rule="evenodd"
     d="m 973.721,1395.14 c 69.819,31.43 122.699,96.05 140.519,170.51 18.93,79.11 -3.09,160.5 -44.55,230.49 -45.9,77.5 -105.886,155.36 -194.278,172.71 -89.983,17.66 -194.555,-12.74 -250.461,-85.43 -50.004,-65.01 -4.132,-154.94 2.721,-236.67 4.295,-51.22 0.507,-102.83 29.317,-145.39 29.549,-43.66 76.419,-67.89 126.397,-84.65 62.933,-21.1 129.807,-48.82 190.335,-21.57 z"
     stroke="#ffffff"
     stroke-width="11"
     id="path955" />
  <path
     fill-rule="evenodd"
     clip-rule="evenodd"
     d="m 450.527,4269.08 c 60.334,19 160.411,-36.68 186.717,19.64 33.404,71.53 -58.109,144.3 -74.174,221.33 -6.836,32.78 2.214,65.77 7.406,98.83 6.716,42.77 40.19,83.74 27.785,125.28 -12.079,40.44 -65.927,53.26 -91.287,87.35 -39.452,53.02 -41.776,134.12 -98.991,168.39 -54.207,32.46 -129.305,26.77 -188.341,3.69 -58.596,-22.9 -82.191,-91.54 -132.2916,-129.02 -56.2545,-42.09 -167.3426,-36.88 -180.3705,-104.91 -14.3909,-75.14 93.920822,-120.87 123.5816,-191.62 19.2181,-45.83 8.2145,-97.06 17.8425,-145.69 12.9125,-65.21 2.1239,-142.6 48.8027,-190.92 45.2733,-46.86 121.9563,-60.71 187.5413,-53.72 63.88,6.81 104.622,72.11 165.779,91.37 z"
     stroke="#6db0cd"
     stroke-width="18"
     id="path957" />
  <path
     fill-rule="evenodd"
     clip-rule="evenodd"
     d="m 1245.86,3189.69 c 62.94,-7.36 130.04,-98.79 178.04,-58.35 60.95,51.35 8.95,154.81 27.32,231.35 7.81,32.57 30.15,58.84 49.02,86.76 24.4,36.12 72.34,59.68 78.85,102.48 6.33,41.67 -37.11,75.29 -45.56,116.61 -13.15,64.27 19.44,138.9 -17.88,193.38 -35.35,51.61 -106.02,77.08 -169.53,80.21 -63.03,3.1 -113.84,-49.63 -175.39,-63.24 -69.12,-15.28 -167.82,34.78 -208.764,-21.71 -45.227,-62.39 33.605,-148.14 30.28,-224.51 -2.154,-49.49 -34.07,-91.53 -46.132,-139.64 -16.176,-64.52 -59.092,-130.42 -37.36,-193.37 21.078,-61.05 84.82,-104.92 147.396,-125.33 60.95,-19.89 125.9,22.81 189.71,15.36 z"
     stroke="#6db0cd"
     stroke-width="11"
     id="path959" />
  <path
     fill-rule="evenodd"
     clip-rule="evenodd"
     d="m 249.367,2379.01 c -17.755,124.66 -191.0372,139.7 -291.6285,218.38 -97.6815,76.41 -151.9915,252.61 -273.6065,223.75 -121.85,-28.92 -93.761,-207.5 -139.078,-321.67 -36.089,-90.93 -130.29,-172.41 -92.921,-262.85 38.279,-92.63 159.173,-105.67 257.113,-134.5 109.601,-32.25 222.8949,-88.56 324.2484,-36.6 120.1236,61.58 234.5636,182.27 215.8726,313.49 z"
     stroke="#6db0cd"
     stroke-width="12"
     id="path961" />
  <path
     fill-rule="evenodd"
     clip-rule="evenodd"
     d="m 604.366,2305.67 c 128.87,-1.79 170.403,163.18 265.315,248.33 92.165,82.68 278.749,108.35 268.009,230.11 -10.77,122.01 -195.789,122.01 -304.474,183.08 -86.552,48.64 -154.725,151.94 -251.93,129.6 -99.572,-22.89 -131.127,-137.59 -175.172,-227.75 -49.289,-100.89 -123.476,-201.7 -86.274,-307.41 44.091,-125.3 148.87,-254.08 284.526,-255.96 z"
     stroke="#6db0cd"
     stroke-width="12"
     id="path963" />
  <path
     fill-rule="evenodd"
     clip-rule="evenodd"
     d="m 754.971,1583.22 c 82.779,59.05 243.173,16.09 275.819,114.01 33.22,99.67 -102.261,183.04 -143.406,283.2 -32.138,78.24 -19.417,168.59 -70.133,236.62 -58.617,78.63 -136.652,172.76 -231.347,167.81 -96.281,-5.03 -123.78,-137.6 -202.711,-190.5 C 311.029,2146 210.792,2154.24 149.607,2092.48 66.4586,2008.54 -62.1947,1903.77 -19.2705,1788.1 25.4139,1667.68 221.857,1715.93 320.148,1632.9 c 93.891,-79.31 80.402,-286.53 199.669,-300.16 119.13,-13.61 139.706,182.39 235.154,250.48 z"
     stroke="#6db0cd"
     stroke-width="19"
     id="path965" />
  <path
     fill-rule="evenodd"
     clip-rule="evenodd"
     d="m 91.8141,2877.47 c 81.7989,59.33 243.4319,17.32 274.1989,115.17 31.32,99.6 -106.148,182.05 -149.388,281.75 -33.774,77.87 -22.824,168.06 -75.016,235.66 -60.3249,78.14 -140.42147,171.62 -235.2439,166.19 -96.4101,-5.53 -121.3321,-137.91 -199.3961,-191.09 -71.372,-48.62 -172.012,-40.93 -232.111,-102.86 -81.674,-84.16 -208.545,-189.34 -163.213,-304.51 47.191,-119.88 243.14,-70.73 343.321,-153.03 95.695,-78.62 86.305,-285.4 206.128,-298.37 119.6845,-12.95 136.4022,182.67 230.7201,251.09 z"
     stroke="#6db0cd"
     stroke-width="19"
     id="path967" />
  <path
     fill-rule="evenodd"
     clip-rule="evenodd"
     d="m 1868.79,2361.4 c 114,21.18 147.08,160.2 206.08,257.79 38.42,63.55 66.5,127.59 71.42,201.24 5.39,80.6 16.62,172.99 -42.63,229.36 -58.95,56.09 -153.49,22.59 -234.87,34.68 -110.61,16.43 -222.33,102.35 -319.17,47.63 -105.54,-59.63 -151.35,-192.64 -148.16,-311.67 3.13,-116.59 80.25,-213.06 164.46,-295.77 84.52,-83.02 185.1,-185.13 302.87,-163.26 z"
     stroke="#6db0cd"
     stroke-width="11"
     id="path969" />
  <path
     fill-rule="evenodd"
     clip-rule="evenodd"
     d="m 1217.94,4181 c 96.1,-19.33 199.25,8.81 273.21,73.49 78.58,68.72 116.18,170.48 125.07,274.84 9.85,115.56 5.3,242.03 -73.86,326.36 -80.58,85.84 -212.12,132.25 -324.42,97.93 -100.45,-30.69 -119.58,-159.25 -173.24,-250.02 -33.63,-56.87 -75.977,-108.12 -77.633,-174.27 -1.699,-67.86 29.091,-128.32 68.673,-183.29 49.85,-69.21 98.89,-148.29 182.2,-165.04 z"
     stroke="#6db0cd"
     stroke-width="11"
     id="path971" />
  <path
     fill-rule="evenodd"
     clip-rule="evenodd"
     d="m 366.527,3176.08 c 60.334,19 160.411,-36.68 186.717,19.64 33.404,71.53 -58.109,144.3 -74.174,221.33 -6.835,32.78 2.214,65.77 7.406,98.83 6.716,42.77 40.19,83.74 27.785,125.28 -12.079,40.44 -65.927,53.26 -91.287,87.35 -39.452,53.02 -41.776,134.12 -98.991,168.39 -54.207,32.46 -129.305,26.77 -188.341,3.69 C 77.0466,3877.69 53.451,3809.05 3.35056,3771.57 -52.904,3729.48 -163.992,3734.69 -177.02,3666.66 c -14.39,-75.14 93.9208,-120.87 123.5816,-191.62 19.2182,-45.83 8.2145,-97.06 17.8425,-145.69 12.9126,-65.21 2.1239,-142.6 48.8027,-190.92 45.2736,-46.86 121.9562,-60.71 187.5412,-53.72 63.88,6.81 104.622,72.11 165.779,91.37 z"
     stroke="#ffffff"
     stroke-width="18"
     id="path973" />
  <path
     fill-rule="evenodd"
     clip-rule="evenodd"
     d="m 1144.33,2438.67 c 62.95,-7.36 130.04,-98.78 178.04,-58.34 60.96,51.35 8.96,154.81 27.33,231.34 7.81,32.57 30.15,58.85 49.01,86.77 24.41,36.11 72.35,59.67 78.85,102.47 6.34,41.68 -37.1,75.3 -45.55,116.61 -13.16,64.28 19.44,138.9 -17.88,193.38 -35.36,51.62 -106.02,77.09 -169.53,80.21 -63.03,3.11 -113.84,-49.62 -175.4,-63.23 -69.12,-15.29 -167.812,34.78 -208.757,-21.71 -45.227,-62.39 33.604,-148.14 30.279,-224.51 -2.154,-49.49 -34.07,-91.54 -46.131,-139.65 -16.177,-64.52 -59.093,-130.42 -37.36,-193.36 21.078,-61.05 84.82,-104.92 147.395,-125.34 60.944,-19.88 125.904,22.82 189.704,15.36 z"
     stroke="#ffffff"
     stroke-width="11"
     id="path975" />
  <path
     fill-rule="evenodd"
     clip-rule="evenodd"
     d="m 182.111,2348.1 c -17.755,124.66 -191.03726,139.7 -291.629,218.39 -97.681,76.4 -151.991,252.6 -273.606,223.74 -121.85,-28.91 -93.761,-207.5 -139.078,-321.67 -36.09,-90.93 -130.29,-172.41 -92.921,-262.84 38.279,-92.64 159.173,-105.68 257.113,-134.5 109.601,-32.26 222.895,-88.56 324.2483,-36.6 120.1234,61.58 234.5637,182.26 215.8727,313.48 z"
     stroke="#ffffff"
     stroke-width="12"
     id="path977" />
  <path
     fill-rule="evenodd"
     clip-rule="evenodd"
     d="m 537.11,2274.76 c 128.869,-1.79 170.403,163.18 265.314,248.33 92.166,82.68 278.756,108.35 268.006,230.12 -10.77,122 -195.785,122 -304.47,183.08 -86.552,48.63 -154.726,151.93 -251.93,129.59 C 414.458,3043 382.903,2928.29 338.858,2838.13 289.569,2737.24 215.382,2636.44 252.583,2530.72 296.675,2405.43 401.454,2276.64 537.11,2274.76 Z"
     stroke="#ffffff"
     stroke-width="12"
     id="path979" />
  <path
     fill-rule="evenodd"
     clip-rule="evenodd"
     d="m 379.19,1554.12 c 97.135,30.06 235.925,-61.09 297.667,21.63 62.847,84.19 -39.602,205.89 -47.21,313.91 -5.943,84.37 34.507,166.15 7.723,246.67 -30.958,93.06 -75.485,206.93 -166.944,231.97 -92.99,25.46 -160.731,-91.77 -252.28,-117.2 -83.7,-23.25 -176.2797,16.05 -253.7654,-23.38 -105.3006,-53.57 -260.3476,-112.64 -255.9206,-235.94 4.608,-128.36 206.2629,-144.25 273.5086,-253.94 64.2347,-104.78 -13.6482,-297.28 95.3057,-347.68 108.8277,-50.33 189.9147,129.29 301.9157,163.96 z"
     stroke="#ffffff"
     stroke-width="19"
     id="path981" />
  <path
     fill-rule="evenodd"
     clip-rule="evenodd"
     d="m -224.978,2624.68 c 81.799,59.33 243.4315,17.32 274.1991,115.17 31.3191,99.6 -106.1488,182.05 -149.3891,281.75 -33.773,77.87 -22.823,168.07 -75.016,235.66 -60.324,78.14 -140.421,171.62 -235.243,166.19 -96.41,-5.52 -121.332,-137.91 -199.396,-191.09 -71.372,-48.62 -172.012,-40.93 -232.112,-102.86 -81.673,-84.16 -208.545,-189.34 -163.215,-304.5 47.194,-119.89 243.143,-70.73 343.323,-153.04 95.695,-78.62 86.305,-285.4 206.129,-298.37 119.684,-12.95 136.402,182.67 230.72,251.09 z"
     stroke="#ffffff"
     stroke-width="19"
     id="path983" />
  <path
     fill-rule="evenodd"
     clip-rule="evenodd"
     d="m 1801.53,2330.49 c 114.01,21.18 147.08,160.2 206.08,257.79 38.42,63.55 66.5,127.59 71.43,201.24 5.39,80.61 16.61,172.99 -42.63,229.36 -58.96,56.1 -153.5,22.59 -234.88,34.68 -110.61,16.43 -222.32,102.35 -319.17,47.64 -105.54,-59.63 -151.35,-192.65 -148.16,-311.68 3.13,-116.58 80.26,-213.06 164.46,-295.77 84.52,-83.01 185.1,-185.13 302.87,-163.26 z"
     stroke="#ffffff"
     stroke-width="11"
     id="path985" />
  <path
     fill-rule="evenodd"
     clip-rule="evenodd"
     d="m 1368.98,1538.49 c 114.01,21.18 147.08,160.2 206.08,257.79 38.42,63.55 66.5,127.59 71.43,201.24 5.39,80.6 16.61,172.99 -42.64,229.36 -58.95,56.1 -153.49,22.59 -234.87,34.68 -110.61,16.43 -222.32,102.35 -319.17,47.64 -105.539,-59.63 -151.352,-192.65 -148.159,-311.68 3.127,-116.58 80.256,-213.06 164.459,-295.77 84.52,-83.02 185.1,-185.13 302.87,-163.26 z"
     stroke="#ffffff"
     stroke-width="11"
     id="path987" />
  <path
     fill-rule="evenodd"
     clip-rule="evenodd"
     d="m 1071.65,3506.41 c 55.6,29.74 164.61,-6.57 179.6,53.58 19.04,76.38 -84.85,131.06 -115.46,203.76 -13.03,30.94 -10.49,65 -11.76,98.43 -1.64,43.24 23.35,89.62 3.17,128.14 -19.65,37.51 -75.01,40.21 -106.48,69.03 -48.954,44.84 -66.851,124.06 -129.643,147.22 -59.492,21.93 -132.154,2.55 -185.694,-30.95 -53.141,-33.26 -63.1,-105 -105.09,-151.02 -47.147,-51.67 -157.257,-66.95 -156.955,-136.15 0.334,-76.44 115.519,-101.48 158.272,-165.51 27.701,-41.49 26.755,-93.82 45.575,-139.82 25.239,-61.68 29.543,-139.67 84.692,-178.55 53.489,-37.72 131.47,-37.24 194.54,-18.33 61.43,18.41 88.873,90.03 145.233,120.17 z"
     stroke="#ffffff"
     stroke-width="11"
     id="path989" />
  <path
     fill-rule="evenodd"
     clip-rule="evenodd"
     d="m 96.5972,2283.74 c -88.64478,91.36 -238.6042,5.24 -367.2902,12.17 -124.965,6.74 -274.031,119.29 -355.817,26.78 -81.944,-92.69 47.206,-222.07 78.287,-340.7 24.752,-94.47 -3.402,-214.25 80.831,-266.63 86.285,-53.65 192.423,-111.07 289.277,-78.94 108.3859,35.96 234.0882,54.45 285.638,154.26 61.096,118.29 82.387,396.88 -10.9258,493.06 z"
     stroke="#ffffff"
     stroke-width="12"
     id="path991" />
  <path
     fill-rule="evenodd"
     clip-rule="evenodd"
     d="m 544.005,3794.05 c 61.147,79.6 228.34,84.2 229.349,186.55 1.027,104.19 -154.773,145.07 -225.256,228.65 -55.052,65.28 -70.814,154.79 -140.534,205.1 -80.583,58.16 -184.593,125.55 -273.92,94.02 C 42.8211,4476.3 57.4726,4342.46 -1.88665,4269.8 -56.1571,4203.37 -154.883,4182.8 -194.471,4106.74 c -53.799,-103.36 -144.809,-239.43 -67.818,-337.25 80.148,-101.84 253.6989,-0.31 373.708,-51.4 114.636,-48.8 165.838,-249.66 284.492,-228.82 118.517,20.81 77.588,213 148.094,304.78 z"
     stroke="#ffffff"
     stroke-width="19"
     id="path993" />
  <path
     fill-rule="evenodd"
     clip-rule="evenodd"
     d="m 1670.82,3791.41 c 80.17,81.94 24.34,213.84 14.26,326.73 -6.56,73.53 -21.83,141.58 -61.66,204.3 -43.59,68.66 -89.44,150.2 -171.2,162.45 -81.37,12.18 -138.35,-68.75 -211.77,-105.1 -99.79,-49.41 -241.834,-42.9 -288.071,-142.39 -50.391,-108.43 -8.501,-242.67 64.941,-337.72 71.94,-93.09 192.13,-127.82 309.87,-147.33 118.19,-19.58 260.82,-45.58 343.63,39.06 z"
     stroke="#ffffff"
     stroke-width="11"
     id="path995" />
  <path
     fill-rule="evenodd"
     clip-rule="evenodd"
     d="m 672.105,3981.55 c 92.07,40.48 161.808,123.69 185.309,219.59 24.97,101.88 -4.073,206.69 -58.746,296.82 -60.54,99.81 -139.64,200.08 -256.208,222.42 -118.666,22.74 -256.57,-16.41 -330.296,-110.01 -65.943,-83.73 -5.45,-199.54 3.588,-304.8 5.664,-65.95 0.669,-132.42 38.662,-187.23 38.968,-56.22 100.778,-87.42 166.686,-109.01 82.993,-27.18 171.184,-62.87 251.005,-27.78 z"
     stroke="#ffffff"
     stroke-width="11"
     id="path997" />
  <path
     fill-rule="evenodd"
     clip-rule="evenodd"
     d="m 1869.3956,5086.1505 c 78.1324,84.9139 25.5844,219.7159 16.9828,335.488 -5.6048,75.3837 -19.6549,145.0677 -57.451,209.0519 -41.3661,70.021 -84.7883,153.2495 -163.5305,164.9861 -78.3562,11.7059 -134.1217,-71.9516 -205.295,-109.9805 -96.7362,-51.7268 -233.6801,-46.4867 -279.2628,-149.0513 -49.6735,-111.7885 -10.5967,-249.1645 59.3079,-345.9683 68.4644,-94.8118 184.0436,-129.2554 297.4194,-148.0707 113.8049,-18.9072 251.1165,-44.1576 331.8292,43.5448 z"
     stroke="#ffffff"
     stroke-width="15.3219"
     id="path645" />
</svg>
