<?xml version="1.0" encoding="UTF-8" standalone="no"?>
<svg
   width="1192"
   height="1190"
   viewBox="0 0 1192 1190"
   fill="none"
   version="1.1"
   id="svg900"
   sodipodi:docname="green floatie.svg"
   inkscape:version="1.2.1 (9c6d41e410, 2022-07-14)"
   xmlns:inkscape="http://www.inkscape.org/namespaces/inkscape"
   xmlns:sodipodi="http://sodipodi.sourceforge.net/DTD/sodipodi-0.dtd"
   xmlns="http://www.w3.org/2000/svg"
   xmlns:svg="http://www.w3.org/2000/svg">
  <defs
     id="defs904" />
  <sodipodi:namedview
     id="namedview902"
     pagecolor="#ffffff"
     bordercolor="#666666"
     borderopacity="1.0"
     inkscape:showpageshadow="2"
     inkscape:pageopacity="0.0"
     inkscape:pagecheckerboard="0"
     inkscape:deskcolor="#d1d1d1"
     showgrid="false"
     inkscape:zoom="0.45411521"
     inkscape:cx="438.21479"
     inkscape:cy="466.84188"
     inkscape:window-width="1474"
     inkscape:window-height="924"
     inkscape:window-x="13"
     inkscape:window-y="25"
     inkscape:window-maximized="0"
     inkscape:current-layer="svg900" />
  <g
     style="mix-blend-mode:luminosity"
     id="g890">
    <g
       style="mix-blend-mode:multiply"
       id="g884">
      <path
         d="M 1054,642.5 C 1054,861.054 863.498,1052 611,1052 358.502,1052 168,861.054 168,642.5 168,423.946 358.502,233 611,233 c 252.498,0 443,190.946 443,409.5 z"
         stroke="#cbf2ff"
         stroke-opacity="0.5"
         stroke-width="276"
         id="path880" />
      <path
         d="M 1054,642.5 C 1054,861.054 863.498,1052 611,1052 358.502,1052 168,861.054 168,642.5 168,423.946 358.502,233 611,233 c 252.498,0 443,190.946 443,409.5 z"
         stroke="#6db0cd"
         stroke-opacity="0.5"
         stroke-width="276"
         id="path882" />
    </g>
    <ellipse
       cx="393.28601"
       cy="235.276"
       rx="39.0872"
       ry="158.345"
       transform="rotate(65.4803,393.286,235.276)"
       fill="#59c797"
       id="ellipse886" />
    <ellipse
       cx="609.90399"
       cy="189.519"
       rx="31.460699"
       ry="38.3013"
       transform="rotate(65.4803,609.904,189.519)"
       fill="#59c797"
       id="ellipse888" />
  </g>
  <path
     d="M 1024,547.5 C 1024,766.054 833.498,957 581,957 328.502,957 138,766.054 138,547.5 138,328.946 328.502,138 581,138 c 252.498,0 443,190.946 443,409.5 z"
     stroke="#59c797"
     stroke-width="276"
     id="path892" />
  <path
     d="M 1024,547.5 C 1024,766.054 833.498,957 581,957 328.502,957 138,766.054 138,547.5 138,328.946 328.502,138 581,138 c 252.498,0 443,190.946 443,409.5 z"
     stroke="#000000"
     stroke-opacity="0.2"
     stroke-width="276"
     id="path894" />
  <ellipse
     cx="278.39163"
     cy="-272.30899"
     rx="39.0872"
     ry="158.345"
     transform="rotate(65.4803)"
     fill="#59c797"
     id="ellipse896" />
  <ellipse
     cx="326.65866"
     cy="-488.38159"
     rx="31.460699"
     ry="38.3013"
     transform="rotate(65.4803)"
     fill="#59c797"
     id="ellipse898" />
</svg>
