<svg width="1728" height="1381" viewBox="0 0 1728 1381" fill="none" xmlns="http://www.w3.org/2000/svg">
<rect x="1120.32" y="448.948" width="301.893" height="26.3439" rx="13.172" transform="rotate(-24.1233 1120.32 448.948)" fill="#14473B"/>
<rect x="1140.93" y="489.966" width="301.893" height="24.8196" rx="12.4098" transform="rotate(-24.1233 1140.93 489.966)" fill="#14473B"/>
<rect x="1159.23" y="533.729" width="301.893" height="24.8196" rx="12.4098" transform="rotate(-24.1233 1159.23 533.729)" fill="#14473B"/>
<rect x="1177.72" y="574.671" width="301.893" height="24.8196" rx="12.4098" transform="rotate(-24.1233 1177.72 574.671)" fill="#14473B"/>
<rect x="1199.03" y="615.804" width="301.893" height="24.8196" rx="12.4098" transform="rotate(-24.1233 1199.03 615.804)" fill="#14473B"/>
<rect x="1219.02" y="655.43" width="301.893" height="24.8196" rx="12.4098" transform="rotate(-24.1233 1219.02 655.43)" fill="#14473B"/>
<rect x="1237.32" y="699.193" width="301.893" height="24.8196" rx="12.4098" transform="rotate(-24.1233 1237.32 699.193)" fill="#14473B"/>
<rect x="1254.86" y="743.615" width="301.893" height="24.8196" rx="12.4098" transform="rotate(-24.1233 1254.86 743.615)" fill="#14473B"/>
<rect x="1272.21" y="790.858" width="301.893" height="24.8196" rx="12.4098" transform="rotate(-24.1233 1272.21 790.858)" fill="#14473B"/>
<rect x="1289.1" y="834.526" width="301.893" height="24.8196" rx="12.4098" transform="rotate(-24.1233 1289.1 834.526)" fill="#14473B"/>
<rect x="1308.71" y="879.796" width="301.893" height="24.8196" rx="12.4098" transform="rotate(-24.1233 1308.71 879.796)" fill="#14473B"/>
<rect x="1334.35" y="919.805" width="301.893" height="24.8196" rx="12.4098" transform="rotate(-24.1233 1334.35 919.805)" fill="#14473B"/>
<rect x="1350.29" y="966.952" width="301.893" height="24.8196" rx="12.4098" transform="rotate(-24.1233 1350.29 966.952)" fill="#14473B"/>
<rect x="1372.72" y="1012.41" width="301.893" height="24.8196" rx="12.4098" transform="rotate(-24.1233 1372.72 1012.41)" fill="#14473B"/>
<rect x="1392.71" y="1052.04" width="301.893" height="24.8196" rx="12.4098" transform="rotate(-24.1233 1392.71 1052.04)" fill="#14473B"/>
<rect x="1408.09" y="1097.02" width="301.893" height="24.8196" rx="12.4098" transform="rotate(-24.1233 1408.09 1097.02)" fill="#14473B"/>
<rect x="1421.69" y="1136.92" width="301.893" height="24.8196" rx="12.4098" transform="rotate(-24.1233 1421.69 1136.92)" fill="#14473B"/>
<rect x="-340.734" y="1119.82" width="1738" height="776" rx="50" transform="rotate(-24.1233 -340.734 1119.82)" fill="#101413" fill-opacity="0.49"/>
<rect x="-357.092" y="1110.2" width="1738" height="776" rx="50" transform="rotate(-24.1233 -357.092 1110.2)" fill="#14473B"/>
<rect x="-279.782" y="1152.14" width="1598.48" height="636.978" rx="50" transform="rotate(-24.1233 -279.782 1152.14)" fill="#BF5430"/>
</svg>
