<svg width="1728" height="4557" viewBox="0 0 1728 4557" fill="none" xmlns="http://www.w3.org/2000/svg">
<path fill-rule="evenodd" clip-rule="evenodd" d="M751.308 731.975C797.059 746.729 872.947 703.492 892.894 747.229C918.224 802.769 848.83 859.279 836.648 919.094C831.465 944.546 838.327 970.161 842.264 995.835C847.357 1029.05 872.74 1060.86 863.333 1093.11C854.174 1124.52 813.341 1134.48 794.111 1160.94C764.195 1202.12 762.433 1265.09 719.047 1291.7C677.942 1316.91 620.997 1312.49 576.23 1294.57C531.797 1276.79 513.905 1223.49 475.914 1194.38C433.257 1161.7 349.02 1165.74 339.141 1112.92C328.229 1054.57 410.36 1019.06 432.852 964.125C447.425 928.532 439.081 888.756 446.382 850.995C456.173 800.352 447.992 740.26 483.388 702.741C517.719 666.351 575.867 655.6 625.6 661.027C674.039 666.312 704.933 717.019 751.308 731.975Z" stroke="#6DB0CD" stroke-width="18"/>
<path fill-rule="evenodd" clip-rule="evenodd" d="M1300.14 351.331C1347.87 345.618 1398.75 274.626 1435.15 306.026C1481.37 345.899 1441.94 426.236 1455.87 485.67C1461.79 510.959 1478.73 531.362 1493.04 553.042C1511.54 581.087 1547.89 599.381 1552.83 632.616C1557.63 664.977 1524.69 691.085 1518.28 723.166C1508.31 773.075 1533.02 831.023 1504.73 873.326C1477.92 913.406 1424.33 933.186 1376.17 935.614C1328.37 938.023 1289.85 897.078 1243.17 886.508C1190.76 874.641 1115.92 913.515 1084.87 869.653C1050.57 821.204 1110.35 754.619 1107.83 695.314C1106.2 656.888 1082 624.238 1072.85 586.881C1060.58 536.78 1028.04 485.605 1044.52 436.727C1060.5 389.321 1108.84 355.256 1156.29 339.404C1202.5 323.965 1251.76 357.122 1300.14 351.331Z" stroke="#6DB0CD" stroke-width="11"/>
<path fill-rule="evenodd" clip-rule="evenodd" d="M570.497 281.004C557.033 377.803 425.635 389.483 349.357 450.581C275.286 509.912 234.104 646.731 141.884 624.322C49.4864 601.869 70.7862 463.198 36.4221 374.538C9.05601 303.933 -62.3752 240.659 -34.0388 170.438C-5.01241 98.5066 86.6605 88.3795 160.928 65.9965C244.037 40.9486 329.947 -2.77068 406.803 37.5755C497.891 85.3934 584.67 179.108 570.497 281.004Z" stroke="#6DB0CD" stroke-width="12"/>
<path fill-rule="evenodd" clip-rule="evenodd" d="M839.69 224.052C937.41 222.664 968.905 350.765 1040.88 416.882C1110.76 481.087 1252.25 501.02 1244.1 595.573C1235.94 690.308 1095.64 690.309 1013.22 737.735C947.593 775.504 895.898 855.713 822.188 838.367C746.684 820.598 722.756 731.525 689.357 661.517C651.981 583.174 595.726 504.898 623.936 422.808C657.37 325.515 736.823 225.514 839.69 224.052Z" stroke="#6DB0CD" stroke-width="12"/>
<path fill-rule="evenodd" clip-rule="evenodd" d="M719.94 -335.537C793.597 -312.191 898.84 -382.972 945.658 -318.742C993.315 -253.362 915.629 -158.863 909.859 -74.9866C905.353 -9.47365 936.026 54.0323 915.716 116.556C892.241 188.822 858.477 277.245 789.124 296.689C718.61 316.458 667.243 225.428 597.822 205.679C534.353 187.623 464.151 218.14 405.394 187.527C325.545 145.924 207.974 100.057 211.331 4.31252C214.826 -95.3581 367.739 -107.696 418.731 -192.873C467.439 -274.236 408.381 -423.719 491 -462.85C573.523 -501.936 635.011 -362.456 719.94 -335.537Z" stroke="#6DB0CD" stroke-width="19"/>
<path fill-rule="evenodd" clip-rule="evenodd" d="M261.805 495.767C323.832 541.842 446.397 509.222 469.728 585.202C493.477 662.545 389.236 726.567 356.447 803.985C330.837 864.453 339.14 934.488 299.564 986.98C253.82 1047.65 193.083 1120.24 121.18 1116.03C48.0735 1111.74 29.1752 1008.94 -30.02 967.642C-84.1406 929.888 -160.455 935.861 -206.028 887.771C-267.96 822.419 -364.166 740.741 -329.791 651.317C-294.006 558.226 -145.42 596.394 -69.4536 532.484C3.11098 471.435 -4.00938 310.867 86.8515 300.796C177.607 290.737 190.284 442.641 261.805 495.767Z" stroke="#6DB0CD" stroke-width="19"/>
<path fill-rule="evenodd" clip-rule="evenodd" d="M1798.49 267.33C1884.94 283.771 1910.02 391.725 1954.76 467.503C1983.89 516.854 2005.19 566.581 2008.92 623.769C2013.01 686.361 2021.52 758.099 1976.59 801.872C1931.89 845.431 1860.2 819.411 1798.49 828.8C1714.62 841.561 1629.9 908.279 1556.47 865.791C1476.44 819.487 1441.7 716.2 1444.12 623.769C1446.49 533.241 1504.98 458.325 1568.82 394.103C1632.92 329.638 1709.19 250.346 1798.49 267.33Z" stroke="#6DB0CD" stroke-width="11"/>
<path fill-rule="evenodd" clip-rule="evenodd" d="M1470.49 -347.67C1556.94 -331.229 1582.02 -223.275 1626.76 -147.497C1655.89 -98.1457 1677.19 -48.4192 1680.92 8.76938C1685.01 71.3609 1693.52 143.099 1648.59 186.872C1603.89 230.431 1532.2 204.411 1470.49 213.8C1386.62 226.561 1301.9 293.279 1228.47 250.791C1148.44 204.487 1113.7 101.2 1116.12 8.76938C1118.49 -81.7594 1176.98 -156.675 1240.82 -220.897C1304.92 -285.362 1381.19 -364.654 1470.49 -347.67Z" stroke="#6DB0CD" stroke-width="11"/>
<path fill-rule="evenodd" clip-rule="evenodd" d="M1268.05 827.656C1343.13 812.651 1423.72 834.498 1481.5 884.732C1542.89 938.104 1572.28 1017.13 1579.22 1098.18C1586.91 1187.93 1583.36 1286.15 1521.51 1351.65C1458.56 1418.32 1355.79 1454.36 1268.05 1427.71C1189.57 1403.87 1174.63 1304.02 1132.7 1233.53C1106.43 1189.36 1073.35 1149.56 1072.05 1098.18C1070.73 1045.49 1094.78 998.526 1125.71 955.839C1164.65 902.086 1202.96 840.665 1268.05 827.656Z" stroke="#6DB0CD" stroke-width="11"/>
<path fill-rule="evenodd" clip-rule="evenodd" d="M450.527 4269.08C510.861 4288.08 610.938 4232.4 637.244 4288.72C670.648 4360.25 579.135 4433.02 563.07 4510.05C556.234 4542.83 565.284 4575.82 570.476 4608.88C577.192 4651.65 610.666 4692.62 598.261 4734.16C586.182 4774.6 532.334 4787.42 506.974 4821.51C467.522 4874.53 465.198 4955.63 407.983 4989.9C353.776 5022.36 278.678 5016.67 219.642 4993.59C161.046 4970.69 137.451 4902.05 87.3504 4864.57C31.0959 4822.48 -79.9922 4827.69 -93.0201 4759.66C-107.411 4684.52 0.900722 4638.79 30.5615 4568.04C49.7796 4522.21 38.776 4470.98 48.404 4422.35C61.3165 4357.14 50.5279 4279.75 97.2067 4231.43C142.48 4184.57 219.163 4170.72 284.748 4177.71C348.628 4184.52 389.37 4249.82 450.527 4269.08Z" stroke="#6DB0CD" stroke-width="18"/>
<path fill-rule="evenodd" clip-rule="evenodd" d="M1245.86 3189.69C1308.8 3182.33 1375.9 3090.9 1423.9 3131.34C1484.85 3182.69 1432.85 3286.15 1451.22 3362.69C1459.03 3395.26 1481.37 3421.53 1500.24 3449.45C1524.64 3485.57 1572.58 3509.13 1579.09 3551.93C1585.42 3593.6 1541.98 3627.22 1533.53 3668.54C1520.38 3732.81 1552.97 3807.44 1515.65 3861.92C1480.3 3913.53 1409.63 3939 1346.12 3942.13C1283.09 3945.23 1232.28 3892.5 1170.73 3878.89C1101.61 3863.61 1002.91 3913.67 961.966 3857.18C916.739 3794.79 995.571 3709.04 992.246 3632.67C990.092 3583.18 958.176 3541.14 946.114 3493.03C929.938 3428.51 887.022 3362.61 908.754 3299.66C929.832 3238.61 993.574 3194.74 1056.15 3174.33C1117.1 3154.44 1182.05 3197.14 1245.86 3189.69Z" stroke="#6DB0CD" stroke-width="11"/>
<path fill-rule="evenodd" clip-rule="evenodd" d="M249.367 2379.01C231.612 2503.67 58.3298 2518.71 -42.2615 2597.39C-139.943 2673.8 -194.253 2850 -315.868 2821.14C-437.718 2792.22 -409.629 2613.64 -454.946 2499.47C-491.035 2408.54 -585.236 2327.06 -547.867 2236.62C-509.588 2143.99 -388.694 2130.95 -290.754 2102.12C-181.153 2069.87 -67.8591 2013.56 33.4944 2065.52C153.618 2127.1 268.058 2247.79 249.367 2379.01Z" stroke="#6DB0CD" stroke-width="12"/>
<path fill-rule="evenodd" clip-rule="evenodd" d="M604.366 2305.67C733.236 2303.88 774.769 2468.85 869.681 2554C961.846 2636.68 1148.43 2662.35 1137.69 2784.11C1126.92 2906.12 941.901 2906.12 833.216 2967.19C746.664 3015.83 678.491 3119.13 581.286 3096.79C481.714 3073.9 450.159 2959.2 406.114 2869.04C356.825 2768.15 282.638 2667.34 319.84 2561.63C363.931 2436.33 468.71 2307.55 604.366 2305.67Z" stroke="#6DB0CD" stroke-width="12"/>
<path fill-rule="evenodd" clip-rule="evenodd" d="M754.971 1583.22C837.75 1642.27 998.144 1599.31 1030.79 1697.23C1064.01 1796.9 928.529 1880.27 887.384 1980.43C855.246 2058.67 867.967 2149.02 817.251 2217.05C758.634 2295.68 680.599 2389.81 585.904 2384.86C489.623 2379.83 462.124 2247.26 383.193 2194.36C311.029 2146 210.792 2154.24 149.607 2092.48C66.4586 2008.54 -62.1947 1903.77 -19.2705 1788.1C25.4139 1667.68 221.857 1715.93 320.148 1632.9C414.039 1553.59 400.55 1346.37 519.817 1332.74C638.947 1319.13 659.523 1515.13 754.971 1583.22Z" stroke="#6DB0CD" stroke-width="19"/>
<path fill-rule="evenodd" clip-rule="evenodd" d="M91.8141 2877.47C173.613 2936.8 335.246 2894.79 366.013 2992.64C397.333 3092.24 259.865 3174.69 216.625 3274.39C182.851 3352.26 193.801 3442.45 141.609 3510.05C81.2841 3588.19 1.18753 3681.67 -93.6349 3676.24C-190.045 3670.71 -214.967 3538.33 -293.031 3485.15C-364.403 3436.53 -465.043 3444.22 -525.142 3382.29C-606.816 3298.13 -733.687 3192.95 -688.355 3077.78C-641.164 2957.9 -445.215 3007.05 -345.034 2924.75C-249.339 2846.13 -258.729 2639.35 -138.906 2626.38C-19.2215 2613.43 -2.5038 2809.05 91.8141 2877.47Z" stroke="#6DB0CD" stroke-width="19"/>
<path fill-rule="evenodd" clip-rule="evenodd" d="M1868.79 2361.4C1982.79 2382.58 2015.87 2521.6 2074.87 2619.19C2113.29 2682.74 2141.37 2746.78 2146.29 2820.43C2151.68 2901.03 2162.91 2993.42 2103.66 3049.79C2044.71 3105.88 1950.17 3072.38 1868.79 3084.47C1758.18 3100.9 1646.46 3186.82 1549.62 3132.1C1444.08 3072.47 1398.27 2939.46 1401.46 2820.43C1404.59 2703.84 1481.71 2607.37 1565.92 2524.66C1650.44 2441.64 1751.02 2339.53 1868.79 2361.4Z" stroke="#6DB0CD" stroke-width="11"/>
<path fill-rule="evenodd" clip-rule="evenodd" d="M1217.94 4181C1314.04 4161.67 1417.19 4189.81 1491.15 4254.49C1569.73 4323.21 1607.33 4424.97 1616.22 4529.33C1626.07 4644.89 1621.52 4771.36 1542.36 4855.69C1461.78 4941.53 1330.24 4987.94 1217.94 4953.62C1117.49 4922.93 1098.36 4794.37 1044.7 4703.6C1011.07 4646.73 968.723 4595.48 967.067 4529.33C965.368 4461.47 996.158 4401.01 1035.74 4346.04C1085.59 4276.83 1134.63 4197.75 1217.94 4181Z" stroke="#6DB0CD" stroke-width="11"/>
</svg>
