<svg width="1728" height="4557" viewBox="0 0 1728 4557" fill="none" xmlns="http://www.w3.org/2000/svg">
<g filter="url(#filter0_i_595_318)">
<path d="M1447.5 893.5L1329 1079L1312 1198.5L1365.5 1256.5L1427 1311L1498 1369.5H1479.5L1348.5 1271L1285.14 1203.13L1291.5 1098.5L1447.5 893.5Z" fill="#745C34"/>
<path d="M1015.54 320.882L1261.54 266.8L1348.86 168.382L1383.36 144.882L1261.54 283.382L1024.15 352.699L851.037 222.219V212.719L1015.54 320.882Z" fill="#997845"/>
<path d="M734.399 208.72L982.224 163.736L1073.12 68.6023L1108.46 46.3893L981.614 180.307L741.836 240.832L573.646 104.064L573.995 94.5701L734.399 208.72Z" fill="#997845"/>
<path d="M1291.17 152L1537.17 97.9174L1624.5 -0.500034L1659 -24L1537.17 114.5L1299.79 183.817L1126.67 53.3371V43.8371L1291.17 152Z" fill="#997845"/>
<path d="M1587.55 499.662L1767.61 675.776L1897.8 694.875L1936.36 710.851L1753.74 684.865L1565.66 524.305L1579.91 307.994L1587.85 302.787L1587.55 499.662Z" fill="#997845"/>
<path d="M1495.5 291L1922.06 263.758L2080.45 263.248L1512.98 313.935L1428 347L1089.5 258L1265 298L1428 323L1495.5 291Z" fill="#81653A"/>
<path d="M46.0001 1192.68L281 1179.97L365 1148.47L549.5 1062.97L344 1192.68L63.4804 1215.62L-21.4999 1248.68L-360 1159.68L-184.5 1199.68L-21.4999 1224.68L46.0001 1192.68Z" fill="#81653A"/>
<path d="M852 -14.5L1072.97 39L1563 -45L1164.5 39L1072.97 68.5L899.971 12.8302H651.971L201.5 83L631.029 1.16978L852 -14.5Z" fill="#735A34"/>
<path d="M158.5 845L379.471 898.5L698 860.67L471 898.5L379.471 928L206.471 872.33H-41.529L-492 942.5L-62.4708 860.67L158.5 845Z" fill="#735A34"/>
<path d="M1624.5 1355L1845.47 1408.5L2164 1370.67L1937 1408.5L1845.47 1438L1672.47 1382.33H1424.47L974 1452.5L1403.53 1370.67L1624.5 1355Z" fill="#735A34"/>
<path d="M1073.31 4926.01L999.311 5133.32L1009.48 5253.59L1074.6 5298.16L1146.73 5337.51L1229.02 5378.65L1210.99 5382.79L1061.27 5316.09L984.33 5264.12L967.124 5160.72L1073.31 4926.01Z" fill="#745C34"/>
<path d="M524.182 4464.55L751.846 4356.8L814.941 4241.34L843.309 4210.72L755.556 4372.96L539.696 4493.63L341.778 4405.19L339.652 4395.93L524.182 4464.55Z" fill="#997845"/>
<path d="M225.076 4418.13L456.556 4318.84L523.861 4205.78L553.337 4176.23L459.668 4335.13L239.509 4447.76L44.9829 4352.09L43.2 4342.76L225.076 4418.13Z" fill="#997845"/>
<path d="M755.047 4238.28L982.712 4130.53L1045.81 4015.07L1074.17 3984.45L986.422 4146.69L770.561 4267.36L572.643 4178.92L570.518 4169.66L755.047 4238.28Z" fill="#997845"/>
<path d="M1121.69 4510.82L1336.59 4642.19L1467.75 4631.68L1508.91 4638.62L1325.11 4654.15L1105.87 4539.74L1071.36 4325.72L1077.94 4318.87L1121.69 4510.82Z" fill="#997845"/>
<path d="M985.293 4328.04L1394.94 4206.06L1549.2 4170.13L1007.46 4346.49L932.033 4397.73L582.201 4386.71L762.202 4386.44L926.663 4374.33L985.293 4328.04Z" fill="#81653A"/>
<path d="M-225.734 5531.16L0.465393 5466.2L75.2888 5416.7L235.983 5292.09L64.712 5464.49L-203.566 5549.6L-278.994 5600.84L-628.826 5589.83L-448.825 5589.55L-284.364 5577.45L-225.734 5531.16Z" fill="#81653A"/>
<path d="M289.756 4174.26L517.095 4176.96L975.909 3985.46L606.304 4156.49L523.695 4205.72L342.625 4190.16L100.912 4245.65L-322.442 4414.82L77.8918 4238.97L289.756 4174.26Z" fill="#735A34"/>
<path d="M-193.872 5167.12L33.4675 5169.83L335.459 5061.7L122.677 5149.35L40.0675 5198.58L-141.002 5183.03L-382.716 5238.51L-806.069 5407.69L-405.735 5231.83L-193.872 5167.12Z" fill="#735A34"/>
<path d="M1349.07 5336.21L1576.41 5338.92L1878.4 5230.78L1665.62 5318.44L1583.01 5367.67L1401.94 5352.12L1160.22 5407.6L736.871 5576.78L1137.2 5400.92L1349.07 5336.21Z" fill="#735A34"/>
<path d="M1162.5 3145.5L1044 3331L1027 3450.5L1080.5 3508.5L1142 3563L1213 3621.5H1194.5L1063.5 3523L1000.14 3455.13L1006.5 3350.5L1162.5 3145.5Z" fill="#745C34"/>
<path d="M730.537 2572.88L976.537 2518.8L1063.86 2420.38L1098.36 2396.88L976.537 2535.38L739.151 2604.7L566.037 2474.22V2464.72L730.537 2572.88Z" fill="#997845"/>
<path d="M449.399 2460.72L697.224 2415.74L788.118 2320.6L823.46 2298.39L696.614 2432.31L456.836 2492.83L288.646 2356.06L288.995 2346.57L449.399 2460.72Z" fill="#997845"/>
<path d="M1006.17 2404L1252.17 2349.92L1339.5 2251.5L1374 2228L1252.17 2366.5L1014.79 2435.82L841.673 2305.34V2295.84L1006.17 2404Z" fill="#997845"/>
<path d="M1302.55 2751.66L1482.61 2927.78L1612.8 2946.88L1651.36 2962.85L1468.74 2936.87L1280.66 2776.31L1294.91 2559.99L1302.85 2554.79L1302.55 2751.66Z" fill="#997845"/>
<path d="M1210.5 2543L1637.06 2515.76L1795.45 2515.25L1227.98 2565.94L1143 2599L804.5 2510L980 2550L1143 2575L1210.5 2543Z" fill="#81653A"/>
<path d="M-239 3444.68L-3.99994 3431.97L80.0001 3400.47L264.5 3314.97L59.0001 3444.68L-221.52 3467.62L-306.5 3500.68L-645 3411.68L-469.5 3451.68L-306.5 3476.68L-239 3444.68Z" fill="#81653A"/>
<path d="M567 2237.5L787.971 2291L1278 2207L879.5 2291L787.971 2320.5L614.971 2264.83H366.971L-83.4999 2335L346.029 2253.17L567 2237.5Z" fill="#735A34"/>
<path d="M-126.5 3097L94.4709 3150.5L413 3112.67L186 3150.5L94.4709 3180L-78.529 3124.33H-326.529L-777 3194.5L-347.471 3112.67L-126.5 3097Z" fill="#735A34"/>
<path d="M1339.5 3607L1560.47 3660.5L1879 3622.67L1652 3660.5L1560.47 3690L1387.47 3634.33H1139.47L689 3704.5L1118.53 3622.67L1339.5 3607Z" fill="#735A34"/>
</g>
<defs>
<filter id="filter0_i_595_318" x="-806.069" y="-45" width="2970.07" height="5649.84" filterUnits="userSpaceOnUse" color-interpolation-filters="sRGB">
<feFlood flood-opacity="0" result="BackgroundImageFix"/>
<feBlend mode="normal" in="SourceGraphic" in2="BackgroundImageFix" result="shape"/>
<feColorMatrix in="SourceAlpha" type="matrix" values="0 0 0 0 0 0 0 0 0 0 0 0 0 0 0 0 0 0 127 0" result="hardAlpha"/>
<feOffset dy="10"/>
<feGaussianBlur stdDeviation="2"/>
<feComposite in2="hardAlpha" operator="arithmetic" k2="-1" k3="1"/>
<feColorMatrix type="matrix" values="0 0 0 0 0 0 0 0 0 0 0 0 0 0 0 0 0 0 0.25 0"/>
<feBlend mode="normal" in2="shape" result="effect1_innerShadow_595_318"/>
</filter>
</defs>
</svg>
