<svg width="1728" height="4557" viewBox="0 0 1728 4557" fill="none" xmlns="http://www.w3.org/2000/svg">
<g filter="url(#filter0_i_7_154)">
<path d="M1447.5 893.5L1329 1079L1312 1198.5L1365.5 1256.5L1427 1311L1498 1369.5H1479.5L1348.5 1271L1285.14 1203.13L1291.5 1098.5L1447.5 893.5Z" fill="#745C34"/>
</g>
<g filter="url(#filter1_i_7_154)">
<path d="M1015.54 320.882L1261.54 266.8L1348.86 168.382L1383.36 144.882L1261.54 283.382L1024.15 352.699L851.037 222.219L851.037 212.719L1015.54 320.882Z" fill="#997845"/>
</g>
<g filter="url(#filter2_i_7_154)">
<path d="M734.399 208.72L982.224 163.736L1073.12 68.6024L1108.46 46.3893L981.614 180.307L741.835 240.832L573.645 104.064L573.995 94.5701L734.399 208.72Z" fill="#997845"/>
</g>
<g filter="url(#filter3_i_7_154)">
<path d="M1291.17 152L1537.17 97.9173L1624.5 -0.500094L1659 -24.0001L1537.17 114.5L1299.79 183.817L1126.67 53.337L1126.67 43.837L1291.17 152Z" fill="#997845"/>
</g>
<g filter="url(#filter4_i_7_154)">
<path d="M1587.55 499.662L1767.61 675.776L1897.8 694.875L1936.36 710.851L1753.74 684.865L1565.65 524.305L1579.91 307.994L1587.85 302.787L1587.55 499.662Z" fill="#997845"/>
</g>
<g filter="url(#filter5_i_7_154)">
<path d="M1495.5 291L1922.06 263.758L2080.45 263.248L1512.98 313.935L1428 347L1089.5 258L1265 298L1428 323L1495.5 291Z" fill="#81653A"/>
</g>
<g filter="url(#filter6_i_7_154)">
<path d="M46.0001 1192.68L281 1179.97L365 1148.47L549.5 1062.97L344 1192.68L63.4804 1215.62L-21.4999 1248.68L-360 1159.68L-184.5 1199.68L-21.5 1224.68L46.0001 1192.68Z" fill="#81653A"/>
</g>
<g filter="url(#filter7_i_7_154)">
<path d="M852 -14.5L1072.97 39L1563 -45L1164.5 39L1072.97 68.5L899.971 12.8302H651.971L201.5 83L631.029 1.16978L852 -14.5Z" fill="#735A34"/>
</g>
<g filter="url(#filter8_i_7_154)">
<path d="M158.5 845L379.471 898.5L698 860.67L471 898.5L379.471 928L206.471 872.33H-41.5291L-492 942.5L-62.4709 860.67L158.5 845Z" fill="#735A34"/>
</g>
<g filter="url(#filter9_i_7_154)">
<path d="M1624.5 1355L1845.47 1408.5L2164 1370.67L1937 1408.5L1845.47 1438L1672.47 1382.33H1424.47L974 1452.5L1403.53 1370.67L1624.5 1355Z" fill="#735A34"/>
</g>
<g filter="url(#filter10_i_7_154)">
<path d="M524.182 4464.55L751.846 4356.8L814.941 4241.34L843.309 4210.72L755.556 4372.96L539.696 4493.63L341.778 4405.19L339.652 4395.93L524.182 4464.55Z" fill="#997845"/>
</g>
<g filter="url(#filter11_i_7_154)">
<path d="M225.076 4418.13L456.555 4318.84L523.861 4205.78L553.337 4176.23L459.668 4335.13L239.508 4447.76L44.9828 4352.09L43.1999 4342.76L225.076 4418.13Z" fill="#997845"/>
</g>
<g filter="url(#filter12_i_7_154)">
<path d="M755.047 4238.28L982.712 4130.53L1045.81 4015.07L1074.17 3984.45L986.422 4146.7L770.561 4267.36L572.643 4178.92L570.518 4169.66L755.047 4238.28Z" fill="#997845"/>
</g>
<g filter="url(#filter13_i_7_154)">
<path d="M1121.69 4510.82L1336.59 4642.19L1467.75 4631.68L1508.91 4638.62L1325.11 4654.15L1105.87 4539.74L1071.36 4325.72L1077.94 4318.87L1121.69 4510.82Z" fill="#997845"/>
</g>
<g filter="url(#filter14_i_7_154)">
<path d="M985.293 4328.04L1394.94 4206.06L1549.2 4170.13L1007.46 4346.49L932.033 4397.73L582.201 4386.71L762.202 4386.44L926.663 4374.33L985.293 4328.04Z" fill="#81653A"/>
</g>
<g filter="url(#filter15_i_7_154)">
<path d="M289.756 4174.26L517.095 4176.96L975.909 3985.46L606.304 4156.49L523.695 4205.72L342.625 4190.16L100.912 4245.65L-322.442 4414.82L77.8918 4238.97L289.756 4174.26Z" fill="#735A34"/>
</g>
<g filter="url(#filter16_i_7_154)">
<path d="M1162.5 3145.5L1044 3331L1027 3450.5L1080.5 3508.5L1142 3563L1213 3621.5H1194.5L1063.5 3523L1000.14 3455.13L1006.5 3350.5L1162.5 3145.5Z" fill="#745C34"/>
</g>
<g filter="url(#filter17_i_7_154)">
<path d="M730.537 2572.88L976.537 2518.8L1063.86 2420.38L1098.36 2396.88L976.537 2535.38L739.151 2604.7L566.037 2474.22L566.037 2464.72L730.537 2572.88Z" fill="#997845"/>
</g>
<g filter="url(#filter18_i_7_154)">
<path d="M449.399 2460.72L697.224 2415.74L788.118 2320.6L823.46 2298.39L696.614 2432.31L456.835 2492.83L288.645 2356.06L288.995 2346.57L449.399 2460.72Z" fill="#997845"/>
</g>
<g filter="url(#filter19_i_7_154)">
<path d="M1006.17 2404L1252.17 2349.92L1339.5 2251.5L1374 2228L1252.17 2366.5L1014.79 2435.82L841.673 2305.34L841.673 2295.84L1006.17 2404Z" fill="#997845"/>
</g>
<g filter="url(#filter20_i_7_154)">
<path d="M1302.55 2751.66L1482.61 2927.78L1612.8 2946.88L1651.36 2962.85L1468.74 2936.87L1280.65 2776.31L1294.91 2559.99L1302.85 2554.79L1302.55 2751.66Z" fill="#997845"/>
</g>
<g filter="url(#filter21_i_7_154)">
<path d="M1210.5 2543L1637.06 2515.76L1795.45 2515.25L1227.98 2565.94L1143 2599L804.5 2510L980 2550L1143 2575L1210.5 2543Z" fill="#81653A"/>
</g>
<g filter="url(#filter22_i_7_154)">
<path d="M-239 3444.68L-3.99998 3431.97L80 3400.47L264.5 3314.97L59 3444.68L-221.52 3467.62L-306.5 3500.68L-645 3411.68L-469.5 3451.68L-306.5 3476.68L-239 3444.68Z" fill="#81653A"/>
</g>
<g filter="url(#filter23_i_7_154)">
<path d="M567 2237.5L787.971 2291L1278 2207L879.5 2291L787.971 2320.5L614.971 2264.83H366.971L-83.5 2335L346.029 2253.17L567 2237.5Z" fill="#735A34"/>
</g>
<g filter="url(#filter24_i_7_154)">
<path d="M-126.5 3097L94.4709 3150.5L413 3112.67L186 3150.5L94.4709 3180L-78.5291 3124.33H-326.529L-777 3194.5L-347.471 3112.67L-126.5 3097Z" fill="#735A34"/>
</g>
<g filter="url(#filter25_i_7_154)">
<path d="M1339.5 3607L1560.47 3660.5L1879 3622.67L1652 3660.5L1560.47 3690L1387.47 3634.33H1139.47L689 3704.5L1118.53 3622.67L1339.5 3607Z" fill="#735A34"/>
</g>
<path d="M947.616 86.5638L931.143 191.497L911.842 186.576L947.616 86.5638Z" fill="#696F2D"/>
<path d="M887.798 87.4522L930.857 184.551L911.972 190.883L887.798 87.4522Z" fill="#696F2D"/>
<path d="M921.693 64.5308L930.839 170.354L910.921 170.201L921.693 64.5308Z" fill="#696F2D"/>
<path d="M931.594 188.125C931.441 193.37 927.394 197.507 921.321 197.329C915.248 197.152 911.449 192.786 911.602 187.542C911.755 182.297 915.803 178.16 921.875 178.337C927.948 178.515 931.747 182.881 931.594 188.125Z" fill="#696F2D"/>
<path d="M349.559 1078.51L336.154 1183.88L316.718 1179.53L349.559 1078.51Z" fill="#696F2D"/>
<path d="M289.792 1081.15L335.666 1176.95L316.973 1183.83L289.792 1081.15Z" fill="#696F2D"/>
<path d="M323.004 1057.25L335.233 1162.76L315.319 1163.19L323.004 1057.25Z" fill="#696F2D"/>
<path d="M336.506 1180.5C336.506 1185.75 332.581 1190 326.506 1190C320.431 1190 316.506 1185.75 316.506 1180.5C316.506 1175.25 320.431 1171 326.506 1171C332.581 1171 336.506 1175.25 336.506 1180.5Z" fill="#696F2D"/>
<path d="M1538.05 192.515L1524.65 297.883L1505.21 293.528L1538.05 192.515Z" fill="#696F2D"/>
<path d="M1478.29 195.148L1524.16 290.949L1505.47 297.829L1478.29 195.148Z" fill="#696F2D"/>
<path d="M1511.5 171.247L1523.73 276.759L1503.81 277.187L1511.5 171.247Z" fill="#696F2D"/>
<path d="M1525 294.5C1525 299.747 1521.08 304 1515 304C1508.92 304 1505 299.747 1505 294.5C1505 289.253 1508.92 285 1515 285C1521.08 285 1525 289.253 1525 294.5Z" fill="#696F2D"/>
<path d="M1580.36 3521.82L1561.67 3658.08L1534.58 3652.45L1580.36 3521.82Z" fill="#696F2D"/>
<path d="M1497.04 3525.23L1560.99 3649.12L1534.93 3658.01L1497.04 3525.23Z" fill="#696F2D"/>
<path d="M1543.34 3494.32L1560.39 3630.76L1532.63 3631.32L1543.34 3494.32Z" fill="#696F2D"/>
<path d="M1562.16 3653.71C1562.16 3660.49 1556.69 3665.99 1548.22 3665.99C1539.75 3665.99 1534.28 3660.49 1534.28 3653.71C1534.28 3646.92 1539.75 3641.42 1548.22 3641.42C1556.69 3641.42 1562.16 3646.92 1562.16 3653.71Z" fill="#696F2D"/>
<path d="M540.34 4049.79L541.49 4187.32L513.867 4185.65L540.34 4049.79Z" fill="#696F2D"/>
<path d="M458.388 4065.16L539.524 4178.54L515.021 4191.1L458.388 4065.16Z" fill="#696F2D"/>
<path d="M499.745 4027.91L536.282 4160.47L508.892 4165.02L499.745 4027.91Z" fill="#696F2D"/>
<path d="M541.345 4182.92C542.323 4189.63 537.702 4195.86 529.322 4197.08C520.942 4198.3 514.735 4193.65 513.757 4186.94C512.779 4180.22 517.4 4173.99 525.78 4172.77C534.161 4171.55 540.367 4176.2 541.345 4182.92Z" fill="#696F2D"/>
<defs>
<filter id="filter0_i_7_154" x="1285.14" y="893.5" width="212.864" height="480" filterUnits="userSpaceOnUse" color-interpolation-filters="sRGB">
<feFlood flood-opacity="0" result="BackgroundImageFix"/>
<feBlend mode="normal" in="SourceGraphic" in2="BackgroundImageFix" result="shape"/>
<feColorMatrix in="SourceAlpha" type="matrix" values="0 0 0 0 0 0 0 0 0 0 0 0 0 0 0 0 0 0 127 0" result="hardAlpha"/>
<feOffset dy="10"/>
<feGaussianBlur stdDeviation="2"/>
<feComposite in2="hardAlpha" operator="arithmetic" k2="-1" k3="1"/>
<feColorMatrix type="matrix" values="0 0 0 0 0 0 0 0 0 0 0 0 0 0 0 0 0 0 0.25 0"/>
<feBlend mode="normal" in2="shape" result="effect1_innerShadow_7_154"/>
</filter>
<filter id="filter1_i_7_154" x="851.037" y="144.882" width="532.327" height="211.817" filterUnits="userSpaceOnUse" color-interpolation-filters="sRGB">
<feFlood flood-opacity="0" result="BackgroundImageFix"/>
<feBlend mode="normal" in="SourceGraphic" in2="BackgroundImageFix" result="shape"/>
<feColorMatrix in="SourceAlpha" type="matrix" values="0 0 0 0 0 0 0 0 0 0 0 0 0 0 0 0 0 0 127 0" result="hardAlpha"/>
<feOffset dy="10"/>
<feGaussianBlur stdDeviation="2"/>
<feComposite in2="hardAlpha" operator="arithmetic" k2="-1" k3="1"/>
<feColorMatrix type="matrix" values="0 0 0 0 0 0 0 0 0 0 0 0 0 0 0 0 0 0 0.25 0"/>
<feBlend mode="normal" in2="shape" result="effect1_innerShadow_7_154"/>
</filter>
<filter id="filter2_i_7_154" x="573.645" y="46.3892" width="534.814" height="198.443" filterUnits="userSpaceOnUse" color-interpolation-filters="sRGB">
<feFlood flood-opacity="0" result="BackgroundImageFix"/>
<feBlend mode="normal" in="SourceGraphic" in2="BackgroundImageFix" result="shape"/>
<feColorMatrix in="SourceAlpha" type="matrix" values="0 0 0 0 0 0 0 0 0 0 0 0 0 0 0 0 0 0 127 0" result="hardAlpha"/>
<feOffset dy="10"/>
<feGaussianBlur stdDeviation="2"/>
<feComposite in2="hardAlpha" operator="arithmetic" k2="-1" k3="1"/>
<feColorMatrix type="matrix" values="0 0 0 0 0 0 0 0 0 0 0 0 0 0 0 0 0 0 0.25 0"/>
<feBlend mode="normal" in2="shape" result="effect1_innerShadow_7_154"/>
</filter>
<filter id="filter3_i_7_154" x="1126.67" y="-24" width="532.327" height="211.817" filterUnits="userSpaceOnUse" color-interpolation-filters="sRGB">
<feFlood flood-opacity="0" result="BackgroundImageFix"/>
<feBlend mode="normal" in="SourceGraphic" in2="BackgroundImageFix" result="shape"/>
<feColorMatrix in="SourceAlpha" type="matrix" values="0 0 0 0 0 0 0 0 0 0 0 0 0 0 0 0 0 0 127 0" result="hardAlpha"/>
<feOffset dy="10"/>
<feGaussianBlur stdDeviation="2"/>
<feComposite in2="hardAlpha" operator="arithmetic" k2="-1" k3="1"/>
<feColorMatrix type="matrix" values="0 0 0 0 0 0 0 0 0 0 0 0 0 0 0 0 0 0 0.25 0"/>
<feBlend mode="normal" in2="shape" result="effect1_innerShadow_7_154"/>
</filter>
<filter id="filter4_i_7_154" x="1565.65" y="302.787" width="370.705" height="412.064" filterUnits="userSpaceOnUse" color-interpolation-filters="sRGB">
<feFlood flood-opacity="0" result="BackgroundImageFix"/>
<feBlend mode="normal" in="SourceGraphic" in2="BackgroundImageFix" result="shape"/>
<feColorMatrix in="SourceAlpha" type="matrix" values="0 0 0 0 0 0 0 0 0 0 0 0 0 0 0 0 0 0 127 0" result="hardAlpha"/>
<feOffset dy="10"/>
<feGaussianBlur stdDeviation="2"/>
<feComposite in2="hardAlpha" operator="arithmetic" k2="-1" k3="1"/>
<feColorMatrix type="matrix" values="0 0 0 0 0 0 0 0 0 0 0 0 0 0 0 0 0 0 0.25 0"/>
<feBlend mode="normal" in2="shape" result="effect1_innerShadow_7_154"/>
</filter>
<filter id="filter5_i_7_154" x="1089.5" y="258" width="990.946" height="93" filterUnits="userSpaceOnUse" color-interpolation-filters="sRGB">
<feFlood flood-opacity="0" result="BackgroundImageFix"/>
<feBlend mode="normal" in="SourceGraphic" in2="BackgroundImageFix" result="shape"/>
<feColorMatrix in="SourceAlpha" type="matrix" values="0 0 0 0 0 0 0 0 0 0 0 0 0 0 0 0 0 0 127 0" result="hardAlpha"/>
<feOffset dy="10"/>
<feGaussianBlur stdDeviation="2"/>
<feComposite in2="hardAlpha" operator="arithmetic" k2="-1" k3="1"/>
<feColorMatrix type="matrix" values="0 0 0 0 0 0 0 0 0 0 0 0 0 0 0 0 0 0 0.25 0"/>
<feBlend mode="normal" in2="shape" result="effect1_innerShadow_7_154"/>
</filter>
<filter id="filter6_i_7_154" x="-360" y="1062.97" width="909.5" height="189.71" filterUnits="userSpaceOnUse" color-interpolation-filters="sRGB">
<feFlood flood-opacity="0" result="BackgroundImageFix"/>
<feBlend mode="normal" in="SourceGraphic" in2="BackgroundImageFix" result="shape"/>
<feColorMatrix in="SourceAlpha" type="matrix" values="0 0 0 0 0 0 0 0 0 0 0 0 0 0 0 0 0 0 127 0" result="hardAlpha"/>
<feOffset dy="10"/>
<feGaussianBlur stdDeviation="2"/>
<feComposite in2="hardAlpha" operator="arithmetic" k2="-1" k3="1"/>
<feColorMatrix type="matrix" values="0 0 0 0 0 0 0 0 0 0 0 0 0 0 0 0 0 0 0.25 0"/>
<feBlend mode="normal" in2="shape" result="effect1_innerShadow_7_154"/>
</filter>
<filter id="filter7_i_7_154" x="201.5" y="-45" width="1361.5" height="132" filterUnits="userSpaceOnUse" color-interpolation-filters="sRGB">
<feFlood flood-opacity="0" result="BackgroundImageFix"/>
<feBlend mode="normal" in="SourceGraphic" in2="BackgroundImageFix" result="shape"/>
<feColorMatrix in="SourceAlpha" type="matrix" values="0 0 0 0 0 0 0 0 0 0 0 0 0 0 0 0 0 0 127 0" result="hardAlpha"/>
<feOffset dy="10"/>
<feGaussianBlur stdDeviation="2"/>
<feComposite in2="hardAlpha" operator="arithmetic" k2="-1" k3="1"/>
<feColorMatrix type="matrix" values="0 0 0 0 0 0 0 0 0 0 0 0 0 0 0 0 0 0 0.25 0"/>
<feBlend mode="normal" in2="shape" result="effect1_innerShadow_7_154"/>
</filter>
<filter id="filter8_i_7_154" x="-492" y="845" width="1190" height="101.5" filterUnits="userSpaceOnUse" color-interpolation-filters="sRGB">
<feFlood flood-opacity="0" result="BackgroundImageFix"/>
<feBlend mode="normal" in="SourceGraphic" in2="BackgroundImageFix" result="shape"/>
<feColorMatrix in="SourceAlpha" type="matrix" values="0 0 0 0 0 0 0 0 0 0 0 0 0 0 0 0 0 0 127 0" result="hardAlpha"/>
<feOffset dy="10"/>
<feGaussianBlur stdDeviation="2"/>
<feComposite in2="hardAlpha" operator="arithmetic" k2="-1" k3="1"/>
<feColorMatrix type="matrix" values="0 0 0 0 0 0 0 0 0 0 0 0 0 0 0 0 0 0 0.25 0"/>
<feBlend mode="normal" in2="shape" result="effect1_innerShadow_7_154"/>
</filter>
<filter id="filter9_i_7_154" x="974" y="1355" width="1190" height="101.5" filterUnits="userSpaceOnUse" color-interpolation-filters="sRGB">
<feFlood flood-opacity="0" result="BackgroundImageFix"/>
<feBlend mode="normal" in="SourceGraphic" in2="BackgroundImageFix" result="shape"/>
<feColorMatrix in="SourceAlpha" type="matrix" values="0 0 0 0 0 0 0 0 0 0 0 0 0 0 0 0 0 0 127 0" result="hardAlpha"/>
<feOffset dy="10"/>
<feGaussianBlur stdDeviation="2"/>
<feComposite in2="hardAlpha" operator="arithmetic" k2="-1" k3="1"/>
<feColorMatrix type="matrix" values="0 0 0 0 0 0 0 0 0 0 0 0 0 0 0 0 0 0 0.25 0"/>
<feBlend mode="normal" in2="shape" result="effect1_innerShadow_7_154"/>
</filter>
<filter id="filter10_i_7_154" x="339.652" y="4210.72" width="503.656" height="286.915" filterUnits="userSpaceOnUse" color-interpolation-filters="sRGB">
<feFlood flood-opacity="0" result="BackgroundImageFix"/>
<feBlend mode="normal" in="SourceGraphic" in2="BackgroundImageFix" result="shape"/>
<feColorMatrix in="SourceAlpha" type="matrix" values="0 0 0 0 0 0 0 0 0 0 0 0 0 0 0 0 0 0 127 0" result="hardAlpha"/>
<feOffset dy="10"/>
<feGaussianBlur stdDeviation="2"/>
<feComposite in2="hardAlpha" operator="arithmetic" k2="-1" k3="1"/>
<feColorMatrix type="matrix" values="0 0 0 0 0 0 0 0 0 0 0 0 0 0 0 0 0 0 0.25 0"/>
<feBlend mode="normal" in2="shape" result="effect1_innerShadow_7_154"/>
</filter>
<filter id="filter11_i_7_154" x="43.1999" y="4176.23" width="510.137" height="275.538" filterUnits="userSpaceOnUse" color-interpolation-filters="sRGB">
<feFlood flood-opacity="0" result="BackgroundImageFix"/>
<feBlend mode="normal" in="SourceGraphic" in2="BackgroundImageFix" result="shape"/>
<feColorMatrix in="SourceAlpha" type="matrix" values="0 0 0 0 0 0 0 0 0 0 0 0 0 0 0 0 0 0 127 0" result="hardAlpha"/>
<feOffset dy="10"/>
<feGaussianBlur stdDeviation="2"/>
<feComposite in2="hardAlpha" operator="arithmetic" k2="-1" k3="1"/>
<feColorMatrix type="matrix" values="0 0 0 0 0 0 0 0 0 0 0 0 0 0 0 0 0 0 0.25 0"/>
<feBlend mode="normal" in2="shape" result="effect1_innerShadow_7_154"/>
</filter>
<filter id="filter12_i_7_154" x="570.518" y="3984.45" width="503.656" height="286.915" filterUnits="userSpaceOnUse" color-interpolation-filters="sRGB">
<feFlood flood-opacity="0" result="BackgroundImageFix"/>
<feBlend mode="normal" in="SourceGraphic" in2="BackgroundImageFix" result="shape"/>
<feColorMatrix in="SourceAlpha" type="matrix" values="0 0 0 0 0 0 0 0 0 0 0 0 0 0 0 0 0 0 127 0" result="hardAlpha"/>
<feOffset dy="10"/>
<feGaussianBlur stdDeviation="2"/>
<feComposite in2="hardAlpha" operator="arithmetic" k2="-1" k3="1"/>
<feColorMatrix type="matrix" values="0 0 0 0 0 0 0 0 0 0 0 0 0 0 0 0 0 0 0.25 0"/>
<feBlend mode="normal" in2="shape" result="effect1_innerShadow_7_154"/>
</filter>
<filter id="filter13_i_7_154" x="1071.36" y="4318.87" width="437.549" height="339.278" filterUnits="userSpaceOnUse" color-interpolation-filters="sRGB">
<feFlood flood-opacity="0" result="BackgroundImageFix"/>
<feBlend mode="normal" in="SourceGraphic" in2="BackgroundImageFix" result="shape"/>
<feColorMatrix in="SourceAlpha" type="matrix" values="0 0 0 0 0 0 0 0 0 0 0 0 0 0 0 0 0 0 127 0" result="hardAlpha"/>
<feOffset dy="10"/>
<feGaussianBlur stdDeviation="2"/>
<feComposite in2="hardAlpha" operator="arithmetic" k2="-1" k3="1"/>
<feColorMatrix type="matrix" values="0 0 0 0 0 0 0 0 0 0 0 0 0 0 0 0 0 0 0.25 0"/>
<feBlend mode="normal" in2="shape" result="effect1_innerShadow_7_154"/>
</filter>
<filter id="filter14_i_7_154" x="582.201" y="4170.13" width="967.002" height="231.599" filterUnits="userSpaceOnUse" color-interpolation-filters="sRGB">
<feFlood flood-opacity="0" result="BackgroundImageFix"/>
<feBlend mode="normal" in="SourceGraphic" in2="BackgroundImageFix" result="shape"/>
<feColorMatrix in="SourceAlpha" type="matrix" values="0 0 0 0 0 0 0 0 0 0 0 0 0 0 0 0 0 0 127 0" result="hardAlpha"/>
<feOffset dy="10"/>
<feGaussianBlur stdDeviation="2"/>
<feComposite in2="hardAlpha" operator="arithmetic" k2="-1" k3="1"/>
<feColorMatrix type="matrix" values="0 0 0 0 0 0 0 0 0 0 0 0 0 0 0 0 0 0 0.25 0"/>
<feBlend mode="normal" in2="shape" result="effect1_innerShadow_7_154"/>
</filter>
<filter id="filter15_i_7_154" x="-322.442" y="3985.46" width="1298.35" height="433.36" filterUnits="userSpaceOnUse" color-interpolation-filters="sRGB">
<feFlood flood-opacity="0" result="BackgroundImageFix"/>
<feBlend mode="normal" in="SourceGraphic" in2="BackgroundImageFix" result="shape"/>
<feColorMatrix in="SourceAlpha" type="matrix" values="0 0 0 0 0 0 0 0 0 0 0 0 0 0 0 0 0 0 127 0" result="hardAlpha"/>
<feOffset dy="10"/>
<feGaussianBlur stdDeviation="2"/>
<feComposite in2="hardAlpha" operator="arithmetic" k2="-1" k3="1"/>
<feColorMatrix type="matrix" values="0 0 0 0 0 0 0 0 0 0 0 0 0 0 0 0 0 0 0.25 0"/>
<feBlend mode="normal" in2="shape" result="effect1_innerShadow_7_154"/>
</filter>
<filter id="filter16_i_7_154" x="1000.14" y="3145.5" width="212.864" height="480" filterUnits="userSpaceOnUse" color-interpolation-filters="sRGB">
<feFlood flood-opacity="0" result="BackgroundImageFix"/>
<feBlend mode="normal" in="SourceGraphic" in2="BackgroundImageFix" result="shape"/>
<feColorMatrix in="SourceAlpha" type="matrix" values="0 0 0 0 0 0 0 0 0 0 0 0 0 0 0 0 0 0 127 0" result="hardAlpha"/>
<feOffset dy="10"/>
<feGaussianBlur stdDeviation="2"/>
<feComposite in2="hardAlpha" operator="arithmetic" k2="-1" k3="1"/>
<feColorMatrix type="matrix" values="0 0 0 0 0 0 0 0 0 0 0 0 0 0 0 0 0 0 0.25 0"/>
<feBlend mode="normal" in2="shape" result="effect1_innerShadow_7_154"/>
</filter>
<filter id="filter17_i_7_154" x="566.037" y="2396.88" width="532.327" height="211.817" filterUnits="userSpaceOnUse" color-interpolation-filters="sRGB">
<feFlood flood-opacity="0" result="BackgroundImageFix"/>
<feBlend mode="normal" in="SourceGraphic" in2="BackgroundImageFix" result="shape"/>
<feColorMatrix in="SourceAlpha" type="matrix" values="0 0 0 0 0 0 0 0 0 0 0 0 0 0 0 0 0 0 127 0" result="hardAlpha"/>
<feOffset dy="10"/>
<feGaussianBlur stdDeviation="2"/>
<feComposite in2="hardAlpha" operator="arithmetic" k2="-1" k3="1"/>
<feColorMatrix type="matrix" values="0 0 0 0 0 0 0 0 0 0 0 0 0 0 0 0 0 0 0.25 0"/>
<feBlend mode="normal" in2="shape" result="effect1_innerShadow_7_154"/>
</filter>
<filter id="filter18_i_7_154" x="288.645" y="2298.39" width="534.814" height="198.443" filterUnits="userSpaceOnUse" color-interpolation-filters="sRGB">
<feFlood flood-opacity="0" result="BackgroundImageFix"/>
<feBlend mode="normal" in="SourceGraphic" in2="BackgroundImageFix" result="shape"/>
<feColorMatrix in="SourceAlpha" type="matrix" values="0 0 0 0 0 0 0 0 0 0 0 0 0 0 0 0 0 0 127 0" result="hardAlpha"/>
<feOffset dy="10"/>
<feGaussianBlur stdDeviation="2"/>
<feComposite in2="hardAlpha" operator="arithmetic" k2="-1" k3="1"/>
<feColorMatrix type="matrix" values="0 0 0 0 0 0 0 0 0 0 0 0 0 0 0 0 0 0 0.25 0"/>
<feBlend mode="normal" in2="shape" result="effect1_innerShadow_7_154"/>
</filter>
<filter id="filter19_i_7_154" x="841.673" y="2228" width="532.327" height="211.817" filterUnits="userSpaceOnUse" color-interpolation-filters="sRGB">
<feFlood flood-opacity="0" result="BackgroundImageFix"/>
<feBlend mode="normal" in="SourceGraphic" in2="BackgroundImageFix" result="shape"/>
<feColorMatrix in="SourceAlpha" type="matrix" values="0 0 0 0 0 0 0 0 0 0 0 0 0 0 0 0 0 0 127 0" result="hardAlpha"/>
<feOffset dy="10"/>
<feGaussianBlur stdDeviation="2"/>
<feComposite in2="hardAlpha" operator="arithmetic" k2="-1" k3="1"/>
<feColorMatrix type="matrix" values="0 0 0 0 0 0 0 0 0 0 0 0 0 0 0 0 0 0 0.25 0"/>
<feBlend mode="normal" in2="shape" result="effect1_innerShadow_7_154"/>
</filter>
<filter id="filter20_i_7_154" x="1280.65" y="2554.79" width="370.705" height="412.064" filterUnits="userSpaceOnUse" color-interpolation-filters="sRGB">
<feFlood flood-opacity="0" result="BackgroundImageFix"/>
<feBlend mode="normal" in="SourceGraphic" in2="BackgroundImageFix" result="shape"/>
<feColorMatrix in="SourceAlpha" type="matrix" values="0 0 0 0 0 0 0 0 0 0 0 0 0 0 0 0 0 0 127 0" result="hardAlpha"/>
<feOffset dy="10"/>
<feGaussianBlur stdDeviation="2"/>
<feComposite in2="hardAlpha" operator="arithmetic" k2="-1" k3="1"/>
<feColorMatrix type="matrix" values="0 0 0 0 0 0 0 0 0 0 0 0 0 0 0 0 0 0 0.25 0"/>
<feBlend mode="normal" in2="shape" result="effect1_innerShadow_7_154"/>
</filter>
<filter id="filter21_i_7_154" x="804.5" y="2510" width="990.946" height="93" filterUnits="userSpaceOnUse" color-interpolation-filters="sRGB">
<feFlood flood-opacity="0" result="BackgroundImageFix"/>
<feBlend mode="normal" in="SourceGraphic" in2="BackgroundImageFix" result="shape"/>
<feColorMatrix in="SourceAlpha" type="matrix" values="0 0 0 0 0 0 0 0 0 0 0 0 0 0 0 0 0 0 127 0" result="hardAlpha"/>
<feOffset dy="10"/>
<feGaussianBlur stdDeviation="2"/>
<feComposite in2="hardAlpha" operator="arithmetic" k2="-1" k3="1"/>
<feColorMatrix type="matrix" values="0 0 0 0 0 0 0 0 0 0 0 0 0 0 0 0 0 0 0.25 0"/>
<feBlend mode="normal" in2="shape" result="effect1_innerShadow_7_154"/>
</filter>
<filter id="filter22_i_7_154" x="-645" y="3314.97" width="909.5" height="189.71" filterUnits="userSpaceOnUse" color-interpolation-filters="sRGB">
<feFlood flood-opacity="0" result="BackgroundImageFix"/>
<feBlend mode="normal" in="SourceGraphic" in2="BackgroundImageFix" result="shape"/>
<feColorMatrix in="SourceAlpha" type="matrix" values="0 0 0 0 0 0 0 0 0 0 0 0 0 0 0 0 0 0 127 0" result="hardAlpha"/>
<feOffset dy="10"/>
<feGaussianBlur stdDeviation="2"/>
<feComposite in2="hardAlpha" operator="arithmetic" k2="-1" k3="1"/>
<feColorMatrix type="matrix" values="0 0 0 0 0 0 0 0 0 0 0 0 0 0 0 0 0 0 0.25 0"/>
<feBlend mode="normal" in2="shape" result="effect1_innerShadow_7_154"/>
</filter>
<filter id="filter23_i_7_154" x="-83.5" y="2207" width="1361.5" height="132" filterUnits="userSpaceOnUse" color-interpolation-filters="sRGB">
<feFlood flood-opacity="0" result="BackgroundImageFix"/>
<feBlend mode="normal" in="SourceGraphic" in2="BackgroundImageFix" result="shape"/>
<feColorMatrix in="SourceAlpha" type="matrix" values="0 0 0 0 0 0 0 0 0 0 0 0 0 0 0 0 0 0 127 0" result="hardAlpha"/>
<feOffset dy="10"/>
<feGaussianBlur stdDeviation="2"/>
<feComposite in2="hardAlpha" operator="arithmetic" k2="-1" k3="1"/>
<feColorMatrix type="matrix" values="0 0 0 0 0 0 0 0 0 0 0 0 0 0 0 0 0 0 0.25 0"/>
<feBlend mode="normal" in2="shape" result="effect1_innerShadow_7_154"/>
</filter>
<filter id="filter24_i_7_154" x="-777" y="3097" width="1190" height="101.5" filterUnits="userSpaceOnUse" color-interpolation-filters="sRGB">
<feFlood flood-opacity="0" result="BackgroundImageFix"/>
<feBlend mode="normal" in="SourceGraphic" in2="BackgroundImageFix" result="shape"/>
<feColorMatrix in="SourceAlpha" type="matrix" values="0 0 0 0 0 0 0 0 0 0 0 0 0 0 0 0 0 0 127 0" result="hardAlpha"/>
<feOffset dy="10"/>
<feGaussianBlur stdDeviation="2"/>
<feComposite in2="hardAlpha" operator="arithmetic" k2="-1" k3="1"/>
<feColorMatrix type="matrix" values="0 0 0 0 0 0 0 0 0 0 0 0 0 0 0 0 0 0 0.25 0"/>
<feBlend mode="normal" in2="shape" result="effect1_innerShadow_7_154"/>
</filter>
<filter id="filter25_i_7_154" x="689" y="3607" width="1190" height="101.5" filterUnits="userSpaceOnUse" color-interpolation-filters="sRGB">
<feFlood flood-opacity="0" result="BackgroundImageFix"/>
<feBlend mode="normal" in="SourceGraphic" in2="BackgroundImageFix" result="shape"/>
<feColorMatrix in="SourceAlpha" type="matrix" values="0 0 0 0 0 0 0 0 0 0 0 0 0 0 0 0 0 0 127 0" result="hardAlpha"/>
<feOffset dy="10"/>
<feGaussianBlur stdDeviation="2"/>
<feComposite in2="hardAlpha" operator="arithmetic" k2="-1" k3="1"/>
<feColorMatrix type="matrix" values="0 0 0 0 0 0 0 0 0 0 0 0 0 0 0 0 0 0 0.25 0"/>
<feBlend mode="normal" in2="shape" result="effect1_innerShadow_7_154"/>
</filter>
</defs>
</svg>
