<svg width="1728" height="4557" viewBox="0 0 1728 4557" fill="none" xmlns="http://www.w3.org/2000/svg">
<path fill-rule="evenodd" clip-rule="evenodd" d="M700.308 707.975C746.059 722.729 821.947 679.492 841.894 723.229C867.224 778.769 797.83 835.279 785.648 895.094C780.465 920.546 787.327 946.161 791.264 971.835C796.357 1005.05 821.74 1036.86 812.333 1069.11C803.174 1100.52 762.341 1110.48 743.111 1136.94C713.195 1178.12 711.433 1241.09 668.047 1267.7C626.942 1292.91 569.997 1288.49 525.23 1270.57C480.797 1252.79 462.905 1199.49 424.914 1170.38C382.257 1137.7 298.02 1141.74 288.141 1088.92C277.229 1030.57 359.36 995.057 381.852 940.125C396.425 904.532 388.081 864.756 395.382 826.995C405.173 776.352 396.992 716.26 432.388 678.741C466.719 642.351 524.867 631.6 574.6 637.027C623.039 642.312 653.933 693.019 700.308 707.975Z" stroke="white" stroke-width="18"/>
<path fill-rule="evenodd" clip-rule="evenodd" d="M1249.14 327.331C1296.87 321.618 1347.75 250.626 1384.15 282.026C1430.37 321.899 1390.94 402.236 1404.87 461.67C1410.79 486.959 1427.73 507.362 1442.04 529.042C1460.54 557.087 1496.89 575.381 1501.83 608.616C1506.63 640.977 1473.69 667.085 1467.28 699.166C1457.31 749.075 1482.02 807.023 1453.73 849.326C1426.92 889.406 1373.33 909.186 1325.17 911.614C1277.37 914.023 1238.85 873.078 1192.17 862.508C1139.76 850.641 1064.92 889.515 1033.87 845.653C999.575 797.204 1059.35 730.619 1056.83 671.314C1055.2 632.888 1031 600.238 1021.85 562.881C1009.58 512.78 977.04 461.605 993.52 412.727C1009.5 365.321 1057.84 331.256 1105.29 315.404C1151.5 299.965 1200.76 333.122 1249.14 327.331Z" stroke="white" stroke-width="11"/>
<path fill-rule="evenodd" clip-rule="evenodd" d="M519.497 257.004C506.033 353.803 374.635 365.483 298.357 426.581C224.286 485.912 183.104 622.731 90.8841 600.322C-1.51363 577.869 19.7862 439.198 -14.5779 350.538C-41.944 279.933 -113.375 216.659 -85.0388 146.438C-56.0124 74.5066 35.6605 64.3795 109.928 41.9965C193.037 16.9486 278.947 -26.7707 355.803 13.5755C446.891 61.3934 533.67 155.108 519.497 257.004Z" stroke="white" stroke-width="12"/>
<path fill-rule="evenodd" clip-rule="evenodd" d="M788.69 200.052C886.41 198.664 917.905 326.765 989.875 392.882C1059.76 457.087 1201.25 477.02 1193.1 571.573C1184.94 666.308 1044.64 666.309 962.225 713.735C896.593 751.504 844.898 831.713 771.188 814.367C695.684 796.598 671.756 707.525 638.357 637.517C600.981 559.174 544.726 480.898 572.936 398.808C606.37 301.515 685.823 201.514 788.69 200.052Z" stroke="white" stroke-width="12"/>
<path fill-rule="evenodd" clip-rule="evenodd" d="M668.94 -359.537C742.597 -336.191 847.84 -406.972 894.658 -342.742C942.315 -277.362 864.629 -182.863 858.859 -98.9866C854.353 -33.4736 885.026 30.0323 864.716 92.5558C841.241 164.822 807.477 253.245 738.124 272.689C667.61 292.458 616.243 201.428 546.822 181.679C483.353 163.623 413.151 194.14 354.394 163.527C274.545 121.924 156.974 76.0569 160.331 -19.6875C163.826 -119.358 316.739 -131.696 367.731 -216.873C416.439 -298.236 357.381 -447.719 440 -486.85C522.523 -525.936 584.011 -386.456 668.94 -359.537Z" stroke="white" stroke-width="19"/>
<path fill-rule="evenodd" clip-rule="evenodd" d="M210.805 471.767C272.832 517.842 395.397 485.222 418.728 561.202C442.477 638.545 338.236 702.567 305.447 779.985C279.837 840.453 288.14 910.488 248.564 962.98C202.82 1023.65 142.083 1096.24 70.1802 1092.03C-2.9265 1087.74 -21.8248 984.935 -81.02 943.642C-135.141 905.888 -211.455 911.861 -257.028 863.771C-318.96 798.419 -415.166 716.741 -380.791 627.317C-345.006 534.226 -196.42 572.394 -120.454 508.484C-47.889 447.435 -55.0094 286.867 35.8515 276.796C126.607 266.737 139.284 418.641 210.805 471.767Z" stroke="white" stroke-width="19"/>
<path fill-rule="evenodd" clip-rule="evenodd" d="M1747.49 243.33C1833.94 259.771 1859.02 367.725 1903.76 443.503C1932.89 492.854 1954.19 542.581 1957.92 599.769C1962.01 662.361 1970.52 734.099 1925.59 777.872C1880.89 821.431 1809.2 795.411 1747.49 804.8C1663.62 817.561 1578.9 884.279 1505.47 841.791C1425.44 795.487 1390.7 692.2 1393.12 599.769C1395.49 509.241 1453.98 434.325 1517.82 370.103C1581.92 305.638 1658.19 226.346 1747.49 243.33Z" stroke="white" stroke-width="11"/>
<path fill-rule="evenodd" clip-rule="evenodd" d="M1419.49 -371.67C1505.94 -355.229 1531.02 -247.275 1575.76 -171.497C1604.89 -122.146 1626.19 -72.4192 1629.92 -15.2306C1634.01 47.3609 1642.52 119.099 1597.59 162.872C1552.89 206.431 1481.2 180.411 1419.49 189.8C1335.62 202.561 1250.9 269.279 1177.47 226.791C1097.44 180.487 1062.7 77.1995 1065.12 -15.2306C1067.49 -105.759 1125.98 -180.675 1189.82 -244.897C1253.92 -309.362 1330.19 -388.654 1419.49 -371.67Z" stroke="white" stroke-width="11"/>
<path fill-rule="evenodd" clip-rule="evenodd" d="M1217.05 803.656C1292.13 788.651 1372.72 810.498 1430.5 860.732C1491.89 914.104 1521.28 993.132 1528.22 1074.18C1535.91 1163.93 1532.36 1262.15 1470.51 1327.65C1407.56 1394.32 1304.79 1430.36 1217.05 1403.71C1138.57 1379.87 1123.63 1280.02 1081.7 1209.53C1055.43 1165.36 1022.35 1125.56 1021.05 1074.18C1019.73 1021.49 1043.78 974.526 1074.71 931.839C1113.65 878.086 1151.96 816.665 1217.05 803.656Z" stroke="white" stroke-width="11"/>
<path fill-rule="evenodd" clip-rule="evenodd" d="M608.841 1016.93C637.494 1055.53 724.377 1064.45 715.188 1111.64C703.518 1171.56 614.204 1177.21 569.525 1218.8C550.514 1236.5 541.209 1261.33 529.49 1284.51C514.331 1314.5 516.496 1355.14 490.094 1375.92C464.385 1396.15 425.371 1380.52 394.34 1390.88C346.064 1406.99 308.027 1457.21 257.257 1453.65C209.156 1450.27 165.386 1413.58 139.373 1372.98C113.554 1332.68 129.973 1278.91 115.977 1233.14C100.261 1181.75 29.3639 1136.08 52.0274 1087.35C77.0613 1033.53 164.536 1052.37 214.768 1020.74C247.314 1000.25 263.643 963.034 291.532 936.549C328.935 901.03 357.205 847.377 407.816 837.419C456.903 827.761 510.469 852.81 547.784 886.132C584.129 918.588 579.797 977.807 608.841 1016.93Z" stroke="white" stroke-width="10"/>
<path fill-rule="evenodd" clip-rule="evenodd" d="M1276.69 1026.19C1318.85 1049.28 1401.51 1021.09 1412.88 1067.79C1427.32 1127.1 1348.54 1169.56 1325.33 1226.02C1315.45 1250.04 1317.37 1276.49 1316.41 1302.44C1315.17 1336.02 1334.12 1372.04 1318.82 1401.95C1303.91 1431.07 1261.94 1433.18 1238.08 1455.56C1200.95 1490.37 1187.38 1551.89 1139.77 1569.87C1094.65 1586.9 1039.55 1571.85 998.955 1545.83C958.659 1520.01 951.107 1464.3 919.266 1428.57C883.515 1388.45 800.02 1376.58 800.249 1322.84C800.502 1263.48 887.846 1244.05 920.265 1194.32C941.27 1162.1 940.553 1121.47 954.824 1085.75C973.962 1037.86 977.226 977.298 1019.05 947.103C1059.61 917.816 1118.74 918.19 1166.56 932.871C1213.14 947.169 1233.95 1002.78 1276.69 1026.19Z" stroke="white" stroke-width="11"/>
<path fill-rule="evenodd" clip-rule="evenodd" d="M723.827 544.867C656.608 615.81 542.896 548.942 445.314 554.324C350.554 559.551 237.519 646.949 175.501 575.113C113.364 503.138 211.297 402.676 234.866 310.557C253.635 237.197 232.286 144.19 296.159 103.518C361.588 61.8564 442.072 106.899 515.515 131.852C597.703 159.776 693.022 174.133 732.112 251.635C778.441 343.49 794.585 470.188 723.827 544.867Z" stroke="white" stroke-width="12"/>
<path fill-rule="evenodd" clip-rule="evenodd" d="M975.981 654.987C1056.31 710.655 1007.48 833.202 1027.61 928.836C1047.17 1021.7 1150.71 1120.16 1089.13 1192.36C1027.42 1264.71 913.253 1183.16 818.623 1173.85C743.264 1166.44 654.577 1201.66 604.68 1144.7C553.567 1086.36 585.868 999.97 599.381 923.589C614.503 838.115 614.222 741.721 684.891 691.318C768.647 631.58 891.425 596.387 975.981 654.987Z" stroke="white" stroke-width="12"/>
<path fill-rule="evenodd" clip-rule="evenodd" d="M1203.79 130.026C1250.16 191.836 1376.94 195.41 1377.7 274.888C1378.48 355.79 1260.34 387.533 1206.89 452.433C1165.15 503.124 1153.19 572.629 1100.33 611.702C1039.22 656.863 960.351 709.191 892.615 684.703C823.745 659.805 834.855 555.874 789.844 499.454C748.691 447.871 673.828 431.899 643.809 372.837C603.014 292.573 534.002 186.913 592.383 110.953C653.159 31.8788 784.761 110.718 875.763 71.0438C962.69 33.1465 1001.52 -122.819 1091.49 -106.641C1181.36 -90.481 1150.33 58.7578 1203.79 130.026Z" stroke="white" stroke-width="19"/>
<path fill-rule="evenodd" clip-rule="evenodd" d="M347.805 540.205C371.499 613.751 490.194 658.445 465.017 733.834C439.389 810.573 317.352 802.083 245.673 846.023C189.687 880.342 155.737 942.158 93.0218 961.869C20.5344 984.652 -71.0828 1008.42 -127.141 963.196C-184.137 917.213 -139.764 822.577 -163.933 754.568C-186.029 692.39 -251.6 652.894 -260.733 587.273C-273.145 498.096 -303.957 375.714 -224.008 322.926C-140.781 267.974 -42.0556 385.396 56.9074 377.544C151.439 370.044 238.973 235.245 318.763 279.861C398.461 324.426 320.485 455.404 347.805 540.205Z" stroke="white" stroke-width="19"/>
<path fill-rule="evenodd" clip-rule="evenodd" d="M1731.04 1247.49C1791.83 1311.12 1749.49 1413.54 1741.85 1501.21C1736.88 1558.3 1725.3 1611.14 1695.1 1659.85C1662.04 1713.16 1627.27 1776.48 1565.27 1785.99C1503.58 1795.45 1460.36 1732.61 1404.69 1704.38C1329.02 1666.01 1221.31 1671.07 1186.25 1593.81C1148.04 1509.61 1179.8 1405.37 1235.5 1331.57C1290.05 1259.28 1381.18 1232.31 1470.47 1217.16C1560.09 1201.96 1668.24 1181.76 1731.04 1247.49Z" stroke="white" stroke-width="11"/>
<path fill-rule="evenodd" clip-rule="evenodd" d="M1821.59 556.398C1882.38 620.024 1840.04 722.448 1832.4 810.113C1827.43 867.207 1815.85 920.048 1785.65 968.755C1752.6 1022.06 1717.83 1085.39 1655.83 1094.89C1594.13 1104.35 1550.92 1041.51 1495.25 1013.29C1419.58 974.92 1311.86 979.973 1276.8 902.717C1238.59 818.52 1270.36 714.279 1326.05 640.473C1380.6 568.184 1471.73 541.217 1561.02 526.068C1650.64 510.863 1758.79 490.671 1821.59 556.398Z" stroke="white" stroke-width="11"/>
<path fill-rule="evenodd" clip-rule="evenodd" d="M973.721 1395.14C1043.54 1426.57 1096.42 1491.19 1114.24 1565.65C1133.17 1644.76 1111.15 1726.15 1069.69 1796.14C1023.79 1873.64 963.804 1951.5 875.412 1968.85C785.429 1986.51 680.857 1956.11 624.951 1883.42C574.947 1818.41 620.819 1728.48 627.672 1646.75C631.967 1595.53 628.179 1543.92 656.989 1501.36C686.538 1457.7 733.408 1433.47 783.386 1416.71C846.319 1395.61 913.193 1367.89 973.721 1395.14Z" stroke="white" stroke-width="11"/>
<path fill-rule="evenodd" clip-rule="evenodd" d="M366.527 3176.08C426.861 3195.08 526.938 3139.4 553.244 3195.72C586.648 3267.25 495.135 3340.02 479.07 3417.05C472.235 3449.83 481.284 3482.82 486.476 3515.88C493.192 3558.65 526.666 3599.62 514.261 3641.16C502.182 3681.6 448.334 3694.42 422.974 3728.51C383.522 3781.53 381.198 3862.63 323.983 3896.9C269.776 3929.36 194.678 3923.67 135.642 3900.59C77.0466 3877.69 53.451 3809.05 3.35056 3771.57C-52.904 3729.48 -163.992 3734.69 -177.02 3666.66C-191.41 3591.52 -83.0992 3545.79 -53.4384 3475.04C-34.2202 3429.21 -45.2239 3377.98 -35.5959 3329.35C-22.6833 3264.14 -33.472 3186.75 13.2068 3138.43C58.4804 3091.57 135.163 3077.72 200.748 3084.71C264.628 3091.52 305.37 3156.82 366.527 3176.08Z" stroke="white" stroke-width="18"/>
<path fill-rule="evenodd" clip-rule="evenodd" d="M1144.33 2438.67C1207.28 2431.31 1274.37 2339.89 1322.37 2380.33C1383.33 2431.68 1331.33 2535.14 1349.7 2611.67C1357.51 2644.24 1379.85 2670.52 1398.71 2698.44C1423.12 2734.55 1471.06 2758.11 1477.56 2800.91C1483.9 2842.59 1440.46 2876.21 1432.01 2917.52C1418.85 2981.8 1451.45 3056.42 1414.13 3110.9C1378.77 3162.52 1308.11 3187.99 1244.6 3191.11C1181.57 3194.22 1130.76 3141.49 1069.2 3127.88C1000.08 3112.59 901.388 3162.66 860.443 3106.17C815.216 3043.78 894.047 2958.03 890.722 2881.66C888.568 2832.17 856.652 2790.12 844.591 2742.01C828.414 2677.49 785.498 2611.59 807.231 2548.65C828.309 2487.6 892.051 2443.73 954.626 2423.31C1015.57 2403.43 1080.53 2446.13 1144.33 2438.67Z" stroke="white" stroke-width="11"/>
<path fill-rule="evenodd" clip-rule="evenodd" d="M182.111 2348.1C164.356 2472.76 -8.92626 2487.8 -109.518 2566.49C-207.199 2642.89 -261.509 2819.09 -383.124 2790.23C-504.974 2761.32 -476.885 2582.73 -522.202 2468.56C-558.292 2377.63 -652.492 2296.15 -615.123 2205.72C-576.844 2113.08 -455.95 2100.04 -358.01 2071.22C-248.409 2038.96 -135.115 1982.66 -33.7617 2034.62C86.3617 2096.2 200.802 2216.88 182.111 2348.1Z" stroke="white" stroke-width="12"/>
<path fill-rule="evenodd" clip-rule="evenodd" d="M537.11 2274.76C665.979 2272.97 707.513 2437.94 802.424 2523.09C894.59 2605.77 1081.18 2631.44 1070.43 2753.21C1059.66 2875.21 874.645 2875.21 765.96 2936.29C679.408 2984.92 611.234 3088.22 514.03 3065.88C414.458 3043 382.903 2928.29 338.858 2838.13C289.569 2737.24 215.382 2636.44 252.583 2530.72C296.675 2405.43 401.454 2276.64 537.11 2274.76Z" stroke="white" stroke-width="12"/>
<path fill-rule="evenodd" clip-rule="evenodd" d="M379.19 1554.12C476.325 1584.18 615.115 1493.03 676.857 1575.75C739.704 1659.94 637.255 1781.64 629.647 1889.66C623.704 1974.03 664.154 2055.81 637.37 2136.33C606.412 2229.39 561.885 2343.26 470.426 2368.3C377.436 2393.76 309.695 2276.53 218.146 2251.1C134.446 2227.85 41.8663 2267.15 -35.6194 2227.72C-140.92 2174.15 -295.967 2115.08 -291.54 1991.78C-286.932 1863.42 -85.2771 1847.53 -18.0314 1737.84C46.2033 1633.06 -31.6796 1440.56 77.2743 1390.16C186.102 1339.83 267.189 1519.45 379.19 1554.12Z" stroke="white" stroke-width="19"/>
<path fill-rule="evenodd" clip-rule="evenodd" d="M-224.978 2624.68C-143.179 2684.01 18.4535 2642 49.2211 2739.85C80.5402 2839.45 -56.9277 2921.9 -100.168 3021.6C-133.941 3099.47 -122.991 3189.67 -175.184 3257.26C-235.508 3335.4 -315.605 3428.88 -410.427 3423.45C-506.837 3417.93 -531.759 3285.54 -609.823 3232.36C-681.195 3183.74 -781.835 3191.43 -841.935 3129.5C-923.608 3045.34 -1050.48 2940.16 -1005.15 2825C-957.956 2705.11 -762.007 2754.27 -661.827 2671.96C-566.132 2593.34 -575.522 2386.56 -455.698 2373.59C-336.014 2360.64 -319.296 2556.26 -224.978 2624.68Z" stroke="white" stroke-width="19"/>
<path fill-rule="evenodd" clip-rule="evenodd" d="M1801.53 2330.49C1915.54 2351.67 1948.61 2490.69 2007.61 2588.28C2046.03 2651.83 2074.11 2715.87 2079.04 2789.52C2084.43 2870.13 2095.65 2962.51 2036.41 3018.88C1977.45 3074.98 1882.91 3041.47 1801.53 3053.56C1690.92 3069.99 1579.21 3155.91 1482.36 3101.2C1376.82 3041.57 1331.01 2908.55 1334.2 2789.52C1337.33 2672.94 1414.46 2576.46 1498.66 2493.75C1583.18 2410.74 1683.76 2308.62 1801.53 2330.49Z" stroke="white" stroke-width="11"/>
<path fill-rule="evenodd" clip-rule="evenodd" d="M1368.98 1538.49C1482.99 1559.67 1516.06 1698.69 1575.06 1796.28C1613.48 1859.83 1641.56 1923.87 1646.49 1997.52C1651.88 2078.12 1663.1 2170.51 1603.85 2226.88C1544.9 2282.98 1450.36 2249.47 1368.98 2261.56C1258.37 2277.99 1146.66 2363.91 1049.81 2309.2C944.271 2249.57 898.458 2116.55 901.651 1997.52C904.778 1880.94 981.907 1784.46 1066.11 1701.75C1150.63 1618.73 1251.21 1516.62 1368.98 1538.49Z" stroke="white" stroke-width="11"/>
<path fill-rule="evenodd" clip-rule="evenodd" d="M1071.65 3506.41C1127.25 3536.15 1236.26 3499.84 1251.25 3559.99C1270.29 3636.37 1166.4 3691.05 1135.79 3763.75C1122.76 3794.69 1125.3 3828.75 1124.03 3862.18C1122.39 3905.42 1147.38 3951.8 1127.2 3990.32C1107.55 4027.83 1052.19 4030.53 1020.72 4059.35C971.766 4104.19 953.869 4183.41 891.077 4206.57C831.585 4228.5 758.923 4209.12 705.383 4175.62C652.242 4142.36 642.283 4070.62 600.293 4024.6C553.146 3972.93 443.036 3957.65 443.338 3888.45C443.672 3812.01 558.857 3786.97 601.61 3722.94C629.311 3681.45 628.365 3629.12 647.185 3583.12C672.424 3521.44 676.728 3443.45 731.877 3404.57C785.366 3366.85 863.347 3367.33 926.417 3386.24C987.847 3404.65 1015.29 3476.27 1071.65 3506.41Z" stroke="white" stroke-width="11"/>
<path fill-rule="evenodd" clip-rule="evenodd" d="M96.5972 2283.74C7.95242 2375.1 -142.007 2288.98 -270.693 2295.91C-395.658 2302.65 -544.724 2415.2 -626.51 2322.69C-708.454 2230 -579.304 2100.62 -548.223 1981.99C-523.471 1887.52 -551.625 1767.74 -467.392 1715.36C-381.107 1661.71 -274.969 1604.29 -178.115 1636.42C-69.7291 1672.38 55.9732 1690.87 107.523 1790.68C168.619 1908.97 189.91 2187.56 96.5972 2283.74Z" stroke="white" stroke-width="12"/>
<path fill-rule="evenodd" clip-rule="evenodd" d="M544.005 3794.05C605.152 3873.65 772.345 3878.25 773.354 3980.6C774.381 4084.79 618.581 4125.67 548.098 4209.25C493.046 4274.53 477.284 4364.04 407.564 4414.35C326.981 4472.51 222.971 4539.9 133.644 4508.37C42.8211 4476.3 57.4726 4342.46 -1.88665 4269.8C-56.1571 4203.37 -154.883 4182.8 -194.471 4106.74C-248.27 4003.38 -339.28 3867.31 -262.289 3769.49C-182.141 3667.65 -8.5901 3769.18 111.419 3718.09C226.055 3669.29 277.257 3468.43 395.911 3489.27C514.428 3510.08 473.499 3702.27 544.005 3794.05Z" stroke="white" stroke-width="19"/>
<path fill-rule="evenodd" clip-rule="evenodd" d="M1670.82 3791.41C1750.99 3873.35 1695.16 4005.25 1685.08 4118.14C1678.52 4191.67 1663.25 4259.72 1623.42 4322.44C1579.83 4391.1 1533.98 4472.64 1452.22 4484.89C1370.85 4497.07 1313.87 4416.14 1240.45 4379.79C1140.66 4330.38 998.616 4336.89 952.379 4237.4C901.988 4128.97 943.878 3994.73 1017.32 3899.68C1089.26 3806.59 1209.45 3771.86 1327.19 3752.35C1445.38 3732.77 1588.01 3706.77 1670.82 3791.41Z" stroke="white" stroke-width="11"/>
<path fill-rule="evenodd" clip-rule="evenodd" d="M672.105 3981.55C764.175 4022.03 833.913 4105.24 857.414 4201.14C882.384 4303.02 853.341 4407.83 798.668 4497.96C738.128 4597.77 659.028 4698.04 542.46 4720.38C423.794 4743.12 285.89 4703.97 212.164 4610.37C146.221 4526.64 206.714 4410.83 215.752 4305.57C221.416 4239.62 216.421 4173.15 254.414 4118.34C293.382 4062.12 355.192 4030.92 421.1 4009.33C504.093 3982.15 592.284 3946.46 672.105 3981.55Z" stroke="white" stroke-width="11"/>
</svg>
